<?xml version="1.0" standalone="no"?>
<!DOCTYPE svg PUBLIC "-//W3C//DTD SVG 20010904//EN"
 "http://www.w3.org/TR/2001/REC-SVG-20010904/DTD/svg10.dtd">
<svg version="1.0" xmlns="http://www.w3.org/2000/svg"
 width="510.000000pt" height="495.000000pt" viewBox="0 0 510.000000 495.000000"
 preserveAspectRatio="xMidYMid meet">

<g transform="translate(0.000000,495.000000) scale(0.100000,-0.100000)"
fill="#000000" stroke="none">
<path d="M0 2475 l0 -2475 2550 0 2550 0 0 2475 0 2475 -2550 0 -2550 0 0
-2475z m2116 2342 c59 5 63 5 99 -29 36 -33 38 -39 44 -110 l6 -76 79 -73 c98
-92 123 -109 162 -109 33 0 93 17 108 31 6 5 1 18 -12 32 -31 32 -28 46 14 63
45 19 59 14 84 -29 16 -26 29 -36 56 -40 25 -4 48 -19 78 -52 23 -25 51 -45
63 -45 11 0 46 9 78 20 32 11 72 20 90 20 20 0 39 8 51 21 41 46 94 64 184 64
97 0 170 -20 236 -66 41 -28 43 -28 98 -17 49 11 64 10 105 -5 65 -23 86 -22
159 8 136 55 249 19 328 -106 13 -22 30 -61 36 -88 9 -42 9 -54 -5 -75 -13
-18 -15 -40 -11 -88 6 -77 0 -86 -89 -128 -65 -31 -67 -32 -67 -69 0 -48 -17
-63 -100 -93 l-65 -23 -5 -112 c-4 -99 -8 -115 -27 -134 l-22 -22 69 -79 c79
-89 90 -108 114 -197 14 -50 32 -81 80 -140 113 -139 184 -277 260 -504 38
-110 43 -138 36 -167 -13 -53 -85 -224 -119 -283 -24 -43 -29 -61 -24 -90 10
-61 -1 -81 -59 -107 -117 -53 -199 -90 -239 -109 -53 -26 -70 -26 -146 0 l-61
20 -94 -46 c-52 -25 -117 -49 -144 -53 -54 -8 -52 -5 -38 -89 12 -74 -4 -94
-114 -144 -53 -24 -114 -59 -137 -78 -40 -34 -326 -178 -520 -262 -70 -31
-113 -43 -145 -43 -33 0 -114 28 -310 106 -381 153 -568 233 -590 253 -14 12
-20 33 -22 73 l-3 56 -56 32 c-71 42 -156 133 -192 207 -36 73 -67 195 -67
261 0 47 -6 59 -71 151 -39 55 -82 120 -96 143 l-26 44 -54 -7 c-44 -5 -62 -3
-98 15 -111 54 -191 226 -164 353 9 41 21 60 60 98 27 26 49 52 49 57 0 6 38
29 83 53 50 25 90 53 98 68 9 14 41 39 72 54 31 15 57 31 57 35 0 17 -63 72
-88 77 -57 12 -228 68 -249 82 -54 35 -203 308 -203 369 1 47 52 94 101 94 34
0 60 -31 124 -142 53 -93 81 -128 104 -128 16 0 61 38 61 52 0 5 14 21 31 36
29 26 30 30 38 148 8 139 17 160 80 189 44 19 47 25 31 56 -15 27 -80 26 -106
-2 -45 -51 -119 -61 -215 -29 -44 15 -65 18 -79 10 -83 -45 -207 66 -226 202
-9 68 9 112 62 149 37 25 43 33 34 49 -42 79 50 143 207 145 58 0 76 4 95 21
33 30 198 89 655 234 106 33 195 64 197 69 3 4 36 -2 73 -15 53 -18 81 -22
129 -17z m-843 -3878 c46 -12 102 -60 121 -103 40 -90 41 -100 41 -291 0 -213
-11 -267 -68 -332 -50 -57 -98 -76 -187 -71 -99 4 -146 32 -185 111 -95 195
-59 583 60 657 64 40 143 50 218 29z m1969 1 c45 -13 89 -49 118 -96 60 -96
75 -365 29 -536 -13 -50 -67 -118 -114 -145 -56 -32 -162 -32 -225 1 -94 47
-132 156 -133 376 -1 197 22 288 91 353 54 51 149 70 234 47z m961 -1 c57 -15
113 -71 137 -136 32 -85 45 -240 32 -362 -14 -119 -39 -192 -84 -238 -45 -47
-88 -63 -167 -63 -160 1 -232 103 -248 351 -7 108 9 234 38 314 43 116 162
171 292 134z m-3713 -44 l0 -45 -69 0 -70 0 0 -115 c0 -63 3 -115 7 -115 4 0
28 7 53 14 26 8 64 16 85 18 l39 3 0 -44 0 -45 -69 -12 c-37 -7 -79 -20 -93
-29 l-24 -16 3 -180 3 -179 -92 0 -93 0 0 395 0 395 160 0 160 0 0 -45z m290
-305 l0 -350 75 0 75 0 0 -45 0 -45 -160 0 -160 0 0 395 0 395 85 0 85 0 0
-350z m884 318 c7 -45 23 -188 37 -331 6 -65 15 -115 19 -110 4 4 13 28 19 53
41 154 68 235 77 233 5 -1 28 -61 52 -135 23 -73 45 -140 48 -148 6 -13 52
368 53 443 1 26 3 27 51 27 l51 0 -5 -32 c-3 -18 -10 -71 -15 -118 -6 -47 -17
-143 -26 -215 -9 -72 -24 -195 -33 -275 l-17 -145 -54 0 -54 0 -35 108 c-19
59 -38 104 -42 100 -6 -7 -16 -41 -50 -170 l-11 -43 -73 0 -74 0 -11 87 c-6
49 -15 122 -21 163 -5 41 -18 156 -30 255 -11 99 -24 204 -29 233 l-8 52 88 0
88 0 5 -32z m862 -63 c20 -52 40 -92 44 -90 4 2 24 45 44 95 l38 90 89 0 89 0
0 -395 0 -395 -90 0 -91 0 1 266 c1 146 0 268 -2 269 -2 2 -28 -57 -57 -131
-29 -74 -58 -133 -63 -132 -6 2 -33 60 -60 128 -27 69 -54 129 -59 135 -5 5
-9 -97 -9 -263 l0 -272 -45 0 -45 0 0 395 0 395 89 0 89 0 38 -95z m1324 45
l0 -50 -60 0 -60 0 0 -345 0 -346 -85 3 -86 3 -2 340 -2 340 -62 3 -63 3 0 49
0 50 210 0 210 0 0 -50z m900 40 c65 -18 123 -63 154 -119 25 -47 28 -63 28
-140 0 -102 -21 -160 -76 -208 l-36 -32 65 -135 c36 -74 65 -137 65 -140 0 -3
-49 -6 -108 -6 l-109 0 -13 87 c-23 161 -23 158 -54 158 l-28 0 1 -122 2 -123
-90 0 -91 0 0 395 0 395 128 0 c70 0 143 -5 162 -10z"/>
<path d="M1515 4677 c-214 -73 -400 -138 -413 -145 -23 -13 -22 -32 2 -32 27
0 125 -81 155 -128 42 -66 42 -113 1 -142 -29 -20 -30 -25 -30 -96 0 -82 7
-89 60 -58 34 20 60 72 60 119 0 19 4 35 9 35 12 0 21 -36 21 -87 0 -50 22
-77 54 -67 87 28 91 30 94 63 4 38 -33 123 -84 192 -26 36 -31 47 -17 43 29
-11 62 -45 98 -99 48 -74 67 -89 109 -81 26 5 46 1 77 -15 35 -17 50 -20 83
-13 26 6 42 15 44 26 4 23 -111 182 -152 210 -17 12 -46 34 -64 50 -37 32 -59
34 -117 12 -167 -64 -242 -81 -215 -49 10 13 9 15 -9 15 -22 0 -28 14 -11 25
5 3 146 52 312 109 444 152 481 165 492 176 12 12 -88 59 -136 65 -24 3 -145
-34 -423 -128z"/>
<path d="M2100 4782 c0 -5 15 -17 34 -27 32 -17 45 -33 72 -84 l13 -24 6 25
c9 34 -18 84 -55 103 -32 16 -70 20 -70 7z"/>
<path d="M2015 4677 c-139 -46 -139 -46 17 -205 70 -72 130 -127 133 -122 3 4
-39 50 -93 101 -121 116 -144 146 -132 170 11 20 107 59 145 59 45 0 26 -17
-45 -39 -43 -14 -70 -28 -70 -37 0 -7 19 -31 42 -51 23 -21 76 -71 117 -111
42 -41 91 -82 110 -91 33 -18 36 -18 108 8 40 14 73 28 73 31 0 3 -71 75 -158
161 l-157 156 -90 -30z"/>
<path d="M1888 4633 c7 -3 16 -2 19 1 4 3 -2 6 -13 5 -11 0 -14 -3 -6 -6z"/>
<path d="M1680 4563 c-76 -28 -79 -30 -45 -30 15 0 50 12 78 28 62 34 54 35
-33 2z"/>
<path d="M1775 4553 c-90 -32 -107 -47 -93 -78 6 -13 22 -26 35 -30 14 -3 63
-44 110 -90 80 -79 132 -115 167 -115 20 0 138 40 149 50 19 17 -246 290 -280
289 -10 0 -49 -12 -88 -26z"/>
<path d="M1621 4506 c-9 -11 -8 -15 5 -20 23 -9 24 -8 24 14 0 23 -13 26 -29
6z"/>
<path d="M2637 4513 c-6 -11 41 -83 53 -83 17 0 11 30 -11 61 -20 29 -34 36
-42 22z"/>
<path d="M868 4479 c-55 -16 -46 -29 20 -29 64 0 134 -33 186 -89 31 -32 57
-38 101 -21 19 7 26 16 23 32 -4 27 -76 83 -126 98 -54 16 -161 21 -204 9z"/>
<path d="M1390 4460 c-18 -12 -2 -12 25 0 13 6 15 9 5 9 -8 0 -22 -4 -30 -9z"/>
<path d="M3230 4464 c-71 -25 -91 -38 -88 -58 3 -20 10 -21 108 -22 89 -1 116
-5 174 -27 72 -28 102 -33 125 -18 29 18 -3 57 -76 93 -57 28 -80 33 -148 35
-44 1 -87 0 -95 -3z"/>
<path d="M1336 4441 c-4 -5 3 -7 14 -4 23 6 26 13 6 13 -8 0 -17 -4 -20 -9z"/>
<path d="M830 4415 c-10 -12 -10 -15 1 -15 26 0 59 12 59 21 0 15 -47 10 -60
-6z"/>
<path d="M2708 4408 c-25 -13 -43 -16 -53 -10 -11 6 -31 1 -63 -14 -26 -12
-62 -26 -81 -29 -28 -6 -33 -5 -28 8 5 14 2 14 -31 0 -20 -9 -93 -35 -162 -59
-262 -90 -461 -162 -468 -169 -3 -3 0 -16 6 -30 7 -14 12 -37 12 -51 0 -32
-25 -39 375 106 94 34 259 94 369 133 110 39 201 77 204 85 7 18 -10 47 -29
48 -8 1 -31 -7 -51 -18z m-268 -78 c0 -5 -6 -10 -12 -10 -7 0 -24 -3 -38 -5
-22 -5 -21 -3 5 9 36 18 45 19 45 6z m-91 -34 c-4 -4 -240 -90 -334 -121 -95
-33 -165 -53 -165 -49 0 9 74 37 285 109 184 63 231 76 214 61z"/>
<path d="M3897 4391 c-84 -31 -100 -41 -77 -49 8 -2 38 -28 66 -57 72 -73 97
-143 91 -250 -2 -44 -8 -90 -12 -102 -6 -18 -3 -23 9 -23 30 0 200 71 223 92
26 25 30 69 8 92 -17 16 -40 12 -115 -23 -56 -26 -83 -27 -78 -4 2 11 30 27
78 46 124 46 140 55 140 78 0 24 -8 22 -112 -21 -76 -33 -106 -39 -110 -25 -3
9 30 24 155 69 36 14 47 23 47 39 0 32 -69 118 -115 144 -53 30 -102 28 -198
-6z"/>
<path d="M3637 4393 c-16 -3 -26 -10 -24 -16 4 -14 137 -22 137 -8 0 10 -55
32 -74 30 -6 -1 -24 -4 -39 -6z"/>
<path d="M1797 4315 c53 -68 83 -92 83 -65 0 6 -4 10 -8 10 -4 0 -32 29 -62
65 -75 89 -84 82 -13 -10z"/>
<path d="M833 4363 c-41 -20 -41 -27 -3 -43 17 -7 44 -30 61 -51 32 -41 52
-47 93 -27 51 23 39 78 -27 118 -38 24 -80 24 -124 3z"/>
<path d="M1003 4353 c94 -99 100 -286 9 -329 -36 -17 -36 -17 -14 -27 32 -14
86 15 103 55 18 44 13 137 -11 201 -22 58 -76 127 -101 127 -7 0 -2 -11 14
-27z"/>
<path d="M3025 4370 c3 -5 14 -10 23 -10 9 0 31 -9 48 -19 20 -12 36 -16 45
-11 16 10 14 12 -28 34 -35 18 -98 22 -88 6z"/>
<path d="M3323 4320 c54 -34 65 -36 92 -16 18 13 15 15 -35 30 -29 9 -65 16
-79 16 -22 0 -19 -4 22 -30z"/>
<path d="M1182 4321 c-53 -21 -54 -36 -2 -35 44 1 72 18 63 40 -6 17 -8 17
-61 -5z"/>
<path d="M2888 4328 c-32 -11 -36 -29 -12 -49 34 -28 214 -12 214 19 0 5 -16
16 -35 25 -39 19 -124 21 -167 5z"/>
<path d="M2178 4318 c9 -9 15 -9 24 0 9 9 7 12 -12 12 -19 0 -21 -3 -12 -12z"/>
<path d="M3690 4322 c0 -4 20 -18 45 -31 108 -57 169 -205 139 -334 -16 -65
-13 -77 14 -61 38 23 54 74 49 159 -3 44 -12 97 -21 118 -23 52 -84 117 -131
138 -41 19 -95 25 -95 11z"/>
<path d="M2666 4280 c-60 -22 -111 -42 -115 -46 -3 -4 3 -4 14 -1 11 3 34 9
50 13 17 3 54 15 83 25 29 10 57 19 62 19 19 0 9 -21 -15 -32 -14 -6 -25 -16
-25 -21 0 -13 61 0 78 17 15 15 6 66 -12 65 -6 0 -60 -18 -120 -39z"/>
<path d="M3156 4301 c-9 -10 -14 -25 -10 -35 7 -18 54 -46 79 -46 29 0 15 -17
-27 -33 -50 -18 -308 -109 -458 -162 -162 -57 -255 -90 -378 -134 -115 -42
-146 -48 -156 -32 -6 10 -3 12 99 48 39 13 104 37 145 53 129 50 542 197 605
216 33 10 68 25 78 33 16 13 16 16 3 30 -14 13 -22 13 -68 1 -29 -7 -58 -21
-65 -30 -7 -10 -23 -20 -35 -23 -22 -5 -75 -23 -248 -87 -47 -18 -121 -45
-165 -60 -44 -16 -138 -50 -210 -76 -71 -26 -142 -49 -157 -51 -27 -5 -124 25
-193 60 -55 28 -132 28 -170 0 -17 -12 -46 -23 -65 -25 l-35 -4 30 -7 c104
-27 309 -101 420 -153 136 -63 175 -109 195 -231 6 -40 15 -73 19 -73 20 0 41
40 41 78 0 36 4 44 30 57 17 9 60 19 98 24 37 5 78 14 92 20 30 13 618 237
675 256 22 8 105 40 185 72 175 70 180 78 101 154 -28 27 -58 49 -67 49 -17 0
-243 -79 -419 -146 -49 -18 -151 -56 -225 -83 -74 -27 -202 -74 -285 -104
-229 -84 -253 -92 -260 -85 -12 12 4 26 48 42 23 9 105 38 182 66 77 28 174
64 215 80 41 16 145 54 230 85 293 107 473 175 479 180 9 9 -21 25 -48 25 -14
0 -40 -5 -58 -12 -32 -12 -35 -11 -65 21 -55 59 -147 81 -182 42z"/>
<path d="M734 4292 c-54 -36 -41 -159 25 -233 47 -52 106 -64 140 -28 27 29
28 107 2 164 -35 77 -122 128 -167 97z m94 -57 c38 -32 54 -72 50 -125 -4 -58
-26 -71 -72 -46 -40 21 -66 69 -69 125 -2 70 38 91 91 46z"/>
<path d="M777 4223 c-26 -25 17 -134 56 -141 27 -5 22 60 -8 108 -25 39 -35
46 -48 33z"/>
<path d="M3568 4283 c-30 -8 -20 -19 40 -46 85 -37 136 -101 162 -204 12 -47
30 -58 30 -18 0 14 8 29 20 35 55 30 -17 172 -112 221 -35 18 -98 23 -140 12z"/>
<path d="M2835 4233 c-46 -11 -75 -63 -35 -63 18 0 129 37 140 47 2 2 -2 8
-10 13 -16 10 -60 11 -95 3z"/>
<path d="M1145 4171 c4 -34 2 -75 -5 -100 -13 -50 -10 -57 19 -42 25 14 43 77
39 138 -3 42 -6 47 -31 54 l-29 8 7 -58z"/>
<path d="M1880 4220 c0 -5 9 -10 19 -10 11 0 23 5 26 10 4 6 -5 10 -19 10 -14
0 -26 -4 -26 -10z"/>
<path d="M2475 4210 c-27 -11 -92 -34 -145 -52 -56 -20 -86 -34 -74 -36 12 -2
54 8 94 22 79 28 100 31 100 16 0 -5 -18 -15 -40 -21 -22 -7 -40 -15 -40 -19
0 -16 55 -17 87 -2 27 13 32 19 26 40 -5 20 0 30 23 49 35 27 33 28 -31 3z"/>
<path d="M986 4207 c-28 -12 -29 -15 -30 -90 0 -42 2 -77 6 -77 4 0 23 14 43
31 33 29 35 35 35 90 0 64 -4 67 -54 46z"/>
<path d="M3629 4177 c25 -26 46 -45 47 -44 12 12 -15 48 -49 67 l-42 23 44
-46z"/>
<path d="M2553 4198 c-31 -15 -29 -46 3 -58 49 -19 139 -7 179 25 20 15 20 15
1 30 -23 18 -148 20 -183 3z"/>
<path d="M1572 4159 c6 -18 47 -24 61 -10 8 8 5 11 -10 11 -12 0 -29 3 -39 7
-12 4 -15 2 -12 -8z"/>
<path d="M1665 4160 c-9 -14 19 -55 49 -76 30 -19 81 -15 81 6 0 19 -121 84
-130 70z"/>
<path d="M1594 4110 c-29 -12 -54 -49 -54 -80 0 -23 7 -28 58 -44 67 -20 88
-15 97 23 8 39 -9 78 -44 96 -17 8 -31 15 -33 14 -2 0 -13 -4 -24 -9z"/>
<path d="M2481 4093 c-13 -11 -18 -23 -13 -31 7 -9 19 -9 58 4 60 20 62 23 44
34 -24 15 -66 11 -89 -7z"/>
<path d="M2068 4063 c-93 -34 -121 -53 -79 -53 11 0 22 4 26 9 3 5 34 19 69
31 58 19 115 50 91 49 -5 0 -54 -16 -107 -36z"/>
<path d="M2245 4083 c-100 -22 -79 -73 30 -73 98 0 163 46 99 70 -25 10 -91
12 -129 3z"/>
<path d="M1350 4064 c0 -11 5 -25 12 -32 6 -6 8 -15 4 -19 -4 -5 -16 3 -27 16
-24 29 -36 20 -23 -17 11 -31 16 -31 113 -4 86 23 94 44 13 36 -54 -6 -60 -5
-76 17 -15 22 -16 22 -16 3z"/>
<path d="M3701 4068 c0 -7 4 -22 9 -33 8 -18 9 -17 9 7 1 15 -3 30 -9 33 -5 3
-10 0 -9 -7z"/>
<path d="M1731 4010 c-9 -26 -8 -30 9 -30 22 0 50 25 50 46 0 8 -10 14 -24 14
-18 0 -27 -8 -35 -30z"/>
<path d="M2083 4023 c-44 -15 -57 -33 -25 -33 24 0 82 29 82 41 0 11 -6 11
-57 -8z"/>
<path d="M3620 4000 c-73 -30 -356 -139 -480 -185 -63 -24 -205 -78 -315 -120
-111 -43 -226 -81 -258 -85 -62 -8 -107 -32 -107 -55 0 -22 8 -20 132 29 119
47 354 137 603 231 169 63 260 98 387 147 49 18 88 39 88 46 0 6 -1 12 -2 11
-2 -1 -23 -9 -48 -19z"/>
<path d="M3830 3985 c0 -19 5 -35 10 -35 6 0 10 16 10 35 0 19 -4 35 -10 35
-5 0 -10 -16 -10 -35z"/>
<path d="M2195 3980 c3 -5 11 -10 16 -10 6 0 7 5 4 10 -3 6 -11 10 -16 10 -6
0 -7 -4 -4 -10z"/>
<path d="M1414 3965 c-80 -22 -161 -61 -178 -87 -21 -34 -34 -282 -15 -294 22
-14 361 -125 366 -120 2 2 -2 17 -11 34 -12 24 -31 35 -108 61 -185 64 -208
74 -208 87 0 8 3 14 6 14 3 0 68 -21 145 -46 76 -25 144 -42 149 -39 22 13 8
37 -32 54 -24 10 -81 28 -128 40 -94 26 -140 46 -140 62 0 15 32 8 188 -42
111 -36 137 -41 153 -31 38 24 74 14 121 -32 25 -24 53 -46 64 -49 10 -3 53
-16 94 -27 98 -29 150 -50 150 -61 0 -17 -45 -9 -144 26 -55 19 -105 35 -113
35 -7 0 -13 -11 -13 -25 0 -14 2 -25 4 -25 2 0 48 -16 102 -36 55 -20 114 -40
132 -45 35 -11 44 -29 13 -29 -10 0 -65 16 -122 35 -57 19 -111 35 -119 35
-15 -1 -66 -38 -59 -44 16 -12 355 -114 360 -108 4 4 3 58 -1 121 -10 136 -16
145 -130 186 -324 116 -560 187 -622 187 -49 -1 -57 5 -36 26 33 33 202 -12
640 -168 162 -58 178 -80 178 -246 0 -95 3 -113 18 -127 10 -10 28 -17 39 -17
20 0 20 4 15 138 -2 79 -10 151 -18 169 -12 30 -11 34 6 43 10 5 30 10 43 10
31 0 87 20 87 30 0 14 -62 57 -121 85 -96 43 -606 217 -674 229 -16 3 -53 -1
-81 -9z"/>
<path d="M2140 3959 c0 -5 4 -9 9 -9 5 0 17 -3 27 -7 11 -4 15 -3 11 4 -9 14
-47 24 -47 12z"/>
<path d="M3685 3960 c-11 -5 -135 -53 -275 -105 -363 -137 -478 -180 -620
-235 -69 -26 -146 -56 -172 -65 -27 -10 -48 -21 -48 -25 0 -4 9 -27 20 -52 10
-24 17 -54 13 -66 -6 -26 4 -28 34 -7 13 9 23 28 25 47 3 30 8 34 98 70 52 21
98 38 103 38 4 0 7 -11 7 -23 0 -32 7 -37 40 -25 23 8 29 16 32 45 3 35 4 36
117 84 62 27 117 49 121 49 4 0 11 -16 14 -35 l7 -35 38 20 c34 17 39 24 38
51 -2 32 -1 33 117 80 65 27 123 46 127 43 5 -3 9 -16 9 -30 0 -16 6 -24 18
-24 27 0 42 20 42 56 0 29 4 33 58 54 31 12 67 26 80 31 36 14 42 11 42 -21 0
-32 14 -40 24 -14 12 30 6 71 -12 87 -20 18 -65 21 -97 7z"/>
<path d="M4027 3876 c-3 -7 -29 -22 -57 -32 -49 -18 -50 -19 -26 -27 35 -12
100 20 104 51 4 24 -13 31 -21 8z"/>
<path d="M3671 3842 c-52 -20 -71 -49 -25 -38 48 12 94 34 94 45 0 15 -17 13
-69 -7z"/>
<path d="M3792 3813 c-17 -31 -25 -192 -12 -208 35 -42 49 -7 53 135 2 72 0
85 -15 88 -9 2 -21 -5 -26 -15z"/>
<path d="M3730 3790 c0 -5 5 -10 10 -10 6 0 10 5 10 10 0 6 -4 10 -10 10 -5 0
-10 -4 -10 -10z"/>
<path d="M3560 3735 c-86 -36 -479 -189 -710 -277 -30 -12 -100 -41 -156 -64
-55 -24 -115 -42 -132 -42 -31 1 -62 -16 -62 -33 0 -14 32 -10 101 12 67 22
281 106 352 138 71 32 448 178 521 202 l69 22 58 -21 c49 -18 59 -19 77 -6 21
15 36 71 26 98 -9 23 -27 20 -144 -29z"/>
<path d="M3393 3737 c-46 -17 -83 -37 -83 -44 0 -7 6 -13 13 -13 24 1 172 65
170 75 -3 17 -16 14 -100 -18z"/>
<path d="M783 3738 c-15 -12 -30 -23 -32 -24 -2 -2 -1 -11 3 -20 5 -14 9 -14
22 -3 21 17 36 -3 111 -146 56 -106 105 -175 124 -175 5 0 2 11 -6 24 -11 17
-14 35 -10 59 6 30 -2 48 -74 164 -45 72 -87 133 -95 136 -8 3 -27 -4 -43 -15z"/>
<path d="M3866 3719 c-11 -26 -2 -122 12 -127 14 -4 16 75 2 118 -6 20 -9 22
-14 9z"/>
<path d="M770 3647 c0 -11 85 -174 117 -224 35 -55 60 -76 103 -87 l25 -7 -25
15 c-22 13 -69 82 -163 245 -27 46 -57 76 -57 58z"/>
<path d="M3310 3574 c-407 -157 -677 -265 -696 -278 -17 -13 -13 -15 41 -20
332 -36 455 -63 507 -113 69 -66 16 -132 -172 -211 l-35 -14 38 -20 c45 -23
161 -51 277 -67 270 -38 372 -96 387 -219 5 -44 3 -52 -11 -52 -10 0 -16 9
-16 25 0 38 -24 86 -57 118 -35 32 -143 72 -223 82 l-55 6 37 -33 c49 -43 101
-132 133 -227 14 -42 29 -81 33 -87 11 -18 80 -34 144 -34 51 0 75 9 241 89
114 55 187 95 191 107 5 11 10 69 13 130 5 95 2 129 -21 240 -42 198 -79 299
-134 364 -142 166 -313 291 -396 289 -17 0 -119 -34 -226 -75z m469 -161 c34
-37 60 -74 59 -82 -3 -17 -98 -59 -287 -128 l-124 -45 -68 68 c-38 38 -69 74
-69 81 0 7 21 22 48 34 100 47 338 139 359 139 14 0 43 -23 82 -67z m251 -503
c0 -5 -33 -25 -72 -44 -40 -19 -83 -45 -95 -58 -32 -34 -60 -104 -67 -168 -13
-104 -18 -130 -27 -130 -14 0 -11 123 5 183 17 64 47 125 72 149 26 23 165 88
176 82 4 -3 8 -9 8 -14z"/>
<path d="M3505 3372 c-88 -36 -162 -67 -165 -69 -2 -2 19 -26 46 -54 l51 -50
169 67 c93 37 172 70 176 73 13 12 -72 101 -95 100 -12 -1 -94 -31 -182 -67z"/>
<path d="M1618 3630 c-55 -33 -7 -180 59 -180 61 0 71 112 13 163 -32 29 -45
32 -72 17z"/>
<path d="M3087 3616 c-31 -13 -68 -27 -81 -30 -21 -5 -42 -33 -33 -42 7 -8
191 72 195 84 6 18 -16 15 -81 -12z"/>
<path d="M2242 3603 l-44 -15 6 -57 c3 -31 8 -93 12 -138 4 -57 10 -83 19 -83
24 0 61 38 84 88 22 48 23 52 10 133 -16 94 -19 97 -87 72z"/>
<path d="M1151 3572 c-17 -31 -13 -40 5 -14 9 13 14 26 11 29 -3 2 -10 -4 -16
-15z"/>
<path d="M3832 3556 c-21 -11 -22 -14 -8 -25 21 -17 46 -7 46 19 0 23 -6 24
-38 6z"/>
<path d="M1187 3543 c-13 -13 -7 -71 9 -84 9 -7 50 -25 93 -40 42 -15 148 -52
236 -84 393 -138 625 -210 644 -198 20 13 26 60 10 79 -6 8 -84 37 -173 65
-249 79 -686 225 -739 248 -51 22 -69 25 -80 14z"/>
<path d="M2785 3498 c-75 -29 -98 -42 -103 -57 -3 -10 2 -11 19 -7 49 14 149
59 149 67 0 16 -16 16 -65 -3z"/>
<path d="M2454 3482 c-53 -39 -107 -100 -124 -141 -13 -32 -12 -35 9 -52 13
-11 39 -19 58 -19 28 0 37 5 51 32 9 18 42 56 72 85 l54 52 -17 35 c-21 45
-49 47 -103 8z"/>
<path d="M1063 3485 c-51 -36 -50 -53 8 -111 29 -30 61 -54 70 -54 44 0 49 58
12 136 -21 44 -53 55 -90 29z"/>
<path d="M1225 3390 c-13 -21 24 -131 68 -203 32 -53 66 -74 135 -87 26 -5 57
-11 69 -15 l21 -7 -25 87 c-17 58 -22 90 -15 97 15 15 36 -23 67 -119 22 -68
32 -85 58 -102 35 -21 201 -91 217 -91 16 0 12 45 -10 100 -23 59 -24 70 -7
70 7 0 25 -35 41 -77 16 -43 36 -85 43 -94 18 -21 101 -45 113 -33 6 6 20 45
32 89 13 43 29 80 36 83 18 5 15 -25 -8 -88 -11 -30 -20 -69 -20 -86 0 -27 5
-34 30 -43 40 -14 86 3 105 38 7 15 15 60 17 100 l3 73 -65 20 c-277 83 -623
199 -794 264 -97 37 -102 38 -111 24z"/>
<path d="M1176 3301 c-4 -7 -5 -15 -2 -18 9 -9 19 4 14 18 -4 11 -6 11 -12 0z"/>
<path d="M2255 3248 c-16 -94 -25 -181 -25 -249 0 -73 1 -78 28 -95 33 -22
131 -31 161 -14 13 6 29 26 36 43 15 37 41 234 32 243 -18 18 -36 -9 -42 -63
-11 -96 -25 -167 -35 -177 -16 -16 -98 -13 -115 5 -16 16 -15 53 11 222 l6 39
48 -7 c80 -11 161 22 147 60 -5 13 -10 13 -41 0 -49 -21 -104 -19 -149 5 -49
27 -55 26 -62 -12z"/>
<path d="M2567 3253 c-4 -3 -7 -32 -7 -63 0 -42 5 -61 18 -72 25 -23 85 -46
139 -53 83 -11 103 -16 97 -26 -13 -21 -156 1 -221 35 -18 9 -35 16 -38 16 -3
0 -5 -24 -3 -52 3 -49 5 -54 38 -70 55 -28 230 -25 341 6 141 39 238 101 224
145 -15 49 -124 83 -338 107 -72 8 -156 19 -186 24 -65 12 -56 11 -64 3z"/>
<path d="M2325 3094 c-12 -151 -14 -139 24 -142 19 -2 37 2 41 8 10 17 34 189
27 196 -3 3 -23 8 -45 11 l-40 5 -7 -78z"/>
<path d="M1209 3100 c-38 -20 -65 -47 -57 -56 3 -3 23 2 43 10 21 9 62 16 91
16 58 0 67 10 32 34 -29 21 -65 19 -109 -4z"/>
<path d="M2506 3042 c-4 -29 -5 -56 -2 -59 12 -13 17 6 14 58 l-3 54 -9 -53z"/>
<path d="M1393 3060 c-13 -5 -23 -11 -23 -14 0 -2 22 -18 50 -35 54 -33 101
-90 132 -161 24 -52 47 -150 48 -197 0 -38 16 -42 51 -14 21 17 24 27 22 78
-3 103 -79 257 -151 306 -35 25 -85 48 -100 46 -4 0 -17 -4 -29 -9z"/>
<path d="M4100 3041 c0 -18 30 -93 82 -202 30 -63 69 -152 87 -199 56 -147 59
-152 84 -148 32 4 27 45 -18 159 -50 123 -103 223 -171 320 -55 77 -64 88 -64
70z"/>
<path d="M1220 3022 c0 -5 15 -16 34 -24 18 -9 49 -30 69 -47 35 -31 69 -39
97 -21 36 23 -87 100 -160 100 -22 0 -40 -4 -40 -8z"/>
<path d="M1092 2991 c-49 -13 -48 -17 5 -35 26 -9 66 -30 87 -46 42 -32 68
-36 112 -20 26 10 26 11 8 31 -50 56 -144 87 -212 70z"/>
<path d="M1623 2968 c40 -53 64 -109 77 -178 15 -79 21 -87 85 -116 65 -31 80
-30 156 9 35 17 88 40 117 50 50 17 51 19 35 36 -10 10 -90 44 -178 75 -237
85 -245 88 -245 97 0 15 19 10 179 -47 86 -31 182 -65 213 -76 59 -21 88 -19
88 6 0 11 -12 15 -50 14 -39 -1 -55 4 -73 20 -13 12 -33 22 -45 22 -12 0 -47
10 -79 22 -32 12 -65 21 -74 20 -9 -2 -62 15 -118 38 -56 22 -104 40 -107 40
-3 0 6 -15 19 -32z"/>
<path d="M2486 2908 c-14 -20 -13 -24 12 -52 25 -29 37 -68 68 -213 6 -31 29
-41 104 -45 60 -3 65 -1 68 19 2 12 -16 80 -39 152 -47 149 -58 161 -148 161
-40 0 -53 -4 -65 -22z"/>
<path d="M1100 2915 c0 -3 16 -21 35 -41 19 -19 47 -58 61 -87 31 -61 80 -133
182 -272 40 -55 81 -110 90 -123 16 -21 18 -22 39 -7 22 15 22 16 -82 163
-145 205 -193 268 -245 314 -46 41 -80 63 -80 53z"/>
<path d="M1418 2898 c-33 -11 -32 -10 -12 -67 21 -62 33 -81 49 -81 21 0 63
21 68 34 9 23 -52 128 -72 125 -3 0 -18 -5 -33 -11z"/>
<path d="M2706 2866 c9 -25 22 -46 29 -46 11 0 10 9 -5 42 -26 58 -43 61 -24
4z"/>
<path d="M2760 2896 c0 -51 46 -81 191 -121 162 -46 241 -96 307 -195 78 -117
132 -287 132 -417 0 -66 8 -78 42 -68 20 7 21 11 15 139 -14 293 -116 480
-312 571 -111 52 -245 96 -312 102 -55 5 -63 4 -63 -11z"/>
<path d="M934 2881 c-41 -25 -59 -72 -58 -151 1 -150 139 -298 238 -256 42 18
62 43 76 94 29 109 -55 284 -153 321 -41 16 -68 13 -103 -8z m115 -96 c55 -47
81 -128 61 -189 -39 -118 -198 20 -176 154 10 63 62 79 115 35z"/>
<path d="M1008 2713 c-46 -18 -48 -39 -12 -83 18 -20 34 -30 48 -28 18 3 21
11 24 54 4 65 -9 77 -60 57z"/>
<path d="M2195 2836 c-23 -59 -17 -81 20 -81 26 0 31 5 47 49 18 46 18 49 1
62 -32 24 -50 16 -68 -30z"/>
<path d="M1294 2860 c-35 -14 -35 -24 3 -84 30 -49 39 -57 62 -54 21 2 27 9
29 35 3 32 -21 91 -42 105 -14 10 -25 9 -52 -2z"/>
<path d="M2334 2840 c-25 -10 -60 -91 -50 -116 5 -12 14 -15 38 -10 17 3 37
11 45 18 22 18 55 88 49 104 -6 15 -49 18 -82 4z"/>
<path d="M2450 2835 c0 -3 4 -13 9 -23 5 -9 13 -26 17 -37 7 -19 7 -19 12 -1
4 20 -16 66 -30 66 -4 0 -8 -2 -8 -5z"/>
<path d="M3231 2792 c94 -61 149 -142 208 -312 22 -62 26 -67 65 -79 72 -23
180 -26 234 -6 94 36 297 138 281 142 -9 2 -81 -28 -160 -68 l-144 -71 -92 5
c-130 8 -136 12 -187 139 -23 58 -61 131 -83 161 -41 54 -123 117 -152 117 -8
0 5 -13 30 -28z"/>
<path d="M4150 2745 l0 -70 37 -12 c21 -6 38 -11 39 -10 1 1 -16 38 -37 82
l-38 80 -1 -70z"/>
<path d="M2745 2780 c-3 -5 4 -41 16 -80 20 -67 21 -103 4 -142 -12 -29 30
-22 54 8 17 22 21 41 21 104 l0 78 -37 17 c-21 10 -41 19 -45 21 -4 3 -9 0
-13 -6z"/>
<path d="M2402 2733 c-12 -17 -31 -35 -42 -38 -30 -10 -24 -25 10 -25 34 0 63
36 58 72 -3 22 -4 22 -26 -9z"/>
<path d="M1488 2724 l-48 -15 0 -56 0 -56 42 7 c69 11 90 44 72 114 -7 25 -4
25 -66 6z"/>
<path d="M2467 2702 c-25 -28 -21 -47 18 -76 l35 -27 0 38 c0 79 -20 102 -53
65z"/>
<path d="M2919 2699 c-8 -13 -20 -42 -27 -64 -6 -22 -19 -66 -29 -99 -24 -79
-59 -116 -111 -116 -61 0 -68 -46 -11 -75 83 -44 166 23 222 181 14 39 35 92
48 118 25 55 20 65 -38 73 -34 4 -41 2 -54 -18z"/>
<path d="M2083 2703 c-23 -9 -13 -20 33 -38 62 -24 160 -121 213 -213 23 -40
48 -75 55 -78 7 -3 25 0 39 5 21 8 27 17 27 42 0 73 -116 226 -205 269 -39 19
-130 26 -162 13z"/>
<path d="M1380 2676 c0 -15 18 -31 26 -23 7 7 -7 37 -17 37 -5 0 -9 -6 -9 -14z"/>
<path d="M1230 2613 c0 -28 -3 -59 -7 -69 -4 -11 -3 -15 4 -11 16 10 26 94 14
114 -8 14 -10 7 -11 -34z"/>
<path d="M1719 2643 c-3 -31 3 -148 8 -155 2 -4 18 -2 35 5 25 10 35 24 49 65
l18 52 -49 25 c-59 30 -60 30 -61 8z"/>
<path d="M1934 2639 c-28 -14 -54 -61 -54 -98 0 -29 2 -31 28 -24 72 20 140 0
220 -65 40 -33 45 -34 80 -24 64 20 67 25 39 68 -31 49 -94 107 -146 134 -44
22 -130 26 -167 9z"/>
<path d="M3110 2641 c0 -19 56 -46 65 -31 3 5 -8 16 -24 25 -35 17 -41 18 -41
6z"/>
<path d="M2396 2631 c-3 -5 11 -30 31 -56 20 -26 44 -68 53 -94 11 -28 30 -54
48 -67 36 -24 111 -39 125 -25 17 17 0 39 -35 46 -18 3 -41 9 -51 12 -10 2
-31 33 -48 68 -16 35 -46 77 -65 94 -36 32 -49 37 -58 22z"/>
<path d="M4132 2628 c-9 -9 -8 -16 6 -31 25 -29 24 -187 -3 -246 -14 -32 -16
-47 -8 -59 19 -32 41 -25 65 20 20 38 23 58 23 166 0 118 -1 125 -24 143 -27
22 -42 24 -59 7z"/>
<path d="M1633 2587 c-18 -7 -33 -16 -34 -22 -1 -5 -5 -20 -9 -31 -10 -26 8
-104 24 -104 24 0 76 40 76 59 0 33 -12 52 -39 63 l-26 10 23 9 c12 4 22 13
22 19 0 5 -1 10 -2 9 -2 0 -18 -6 -35 -12z"/>
<path d="M3080 2477 c0 -137 6 -151 57 -145 l28 3 3 111 c3 121 -3 135 -60
149 l-28 7 0 -125z"/>
<path d="M1270 2566 c0 -17 5 -26 16 -26 10 0 14 7 12 22 -5 32 -28 35 -28 4z"/>
<path d="M2554 2543 c3 -25 10 -51 16 -57 16 -20 108 -39 156 -31 49 7 55 15
22 30 -14 6 -25 22 -28 40 -5 27 -9 31 -55 37 -28 3 -65 11 -84 17 l-34 10 7
-46z"/>
<path d="M1500 2570 c-13 -9 -11 -13 10 -30 32 -25 37 -25 45 0 11 36 -20 53
-55 30z"/>
<path d="M4252 2565 c0 -11 4 -33 8 -50 5 -23 9 -26 14 -14 4 9 0 32 -8 50 -9
23 -14 27 -14 14z"/>
<path d="M3206 2544 c-3 -9 -6 -44 -6 -78 0 -51 4 -66 21 -82 21 -19 21 -18
40 5 10 13 19 33 19 45 0 19 -55 126 -64 126 -2 0 -7 -7 -10 -16z"/>
<path d="M1841 2534 c0 -11 3 -14 6 -6 3 7 2 16 -1 19 -3 4 -6 -2 -5 -13z"/>
<path d="M4118 2544 c-5 -4 -8 -20 -8 -36 0 -16 -5 -49 -11 -72 -6 -24 -9 -54
-7 -67 7 -45 39 74 36 131 -2 29 -6 48 -10 44z"/>
<path d="M3011 2526 c-9 -10 -9 -16 -1 -21 12 -7 40 11 40 26 0 14 -26 10 -39
-5z"/>
<path d="M1327 2503 c-6 -10 80 -134 103 -148 18 -11 11 11 -20 56 -48 72 -76
103 -83 92z"/>
<path d="M1234 2486 c-18 -14 -18 -16 -3 -31 16 -16 19 -16 44 1 25 17 26 19
9 31 -22 16 -26 16 -50 -1z"/>
<path d="M3880 2428 c-161 -79 -207 -89 -311 -69 -79 16 -85 10 -82 -81 3 -94
6 -101 61 -132 26 -14 73 -47 105 -73 l57 -46 88 33 c48 18 102 44 120 57 74
56 114 142 127 273 3 36 8 75 11 88 7 35 -17 28 -176 -50z m-106 -186 c-2
-107 -10 -150 -26 -134 -15 15 0 234 16 229 7 -3 11 -35 10 -95z"/>
<path d="M1520 2484 c0 -5 9 -20 20 -34 14 -18 20 -21 20 -9 0 9 -9 24 -20 34
-11 10 -20 14 -20 9z"/>
<path d="M2004 2477 c60 -39 97 -70 128 -108 44 -54 106 -171 114 -216 3 -18
11 -36 17 -40 19 -12 -4 71 -42 152 -21 44 -55 99 -75 122 -40 46 -121 103
-145 102 -13 0 -13 -2 3 -12z"/>
<path d="M1825 2471 c-16 -5 -43 -14 -60 -21 l-30 -13 38 -8 c116 -26 212
-116 288 -269 16 -33 35 -60 42 -60 33 0 107 33 107 47 0 34 -73 164 -122 218
-78 86 -182 128 -263 106z"/>
<path d="M1186 2458 c41 -67 179 -258 181 -251 5 13 -159 255 -176 261 -9 3
-11 0 -5 -10z"/>
<path d="M2982 2458 c-18 -18 -15 -75 4 -82 43 -17 54 -8 54 44 0 46 -2 50
-23 50 -13 0 -28 -5 -35 -12z"/>
<path d="M4286 2455 c-8 -23 15 -45 48 -45 31 0 66 24 66 46 0 13 -109 12
-114 -1z"/>
<path d="M1284 2425 c-6 -14 33 -88 76 -145 15 -20 20 -22 34 -11 30 25 19 64
-32 119 -50 54 -69 63 -78 37z"/>
<path d="M2250 2410 c-27 -8 -18 -15 33 -23 22 -3 27 -1 25 12 -4 18 -23 22
-58 11z"/>
<path d="M1670 2406 c0 -2 29 -18 65 -34 35 -17 87 -52 115 -78 72 -68 107
-133 181 -343 11 -30 27 -63 36 -73 18 -21 53 -24 71 -6 18 18 14 28 -10 25
-31 -3 -80 84 -72 130 5 35 -32 145 -67 196 -57 83 -139 146 -225 172 -47 14
-94 20 -94 11z"/>
<path d="M4250 2386 c-5 -15 -10 -32 -10 -37 0 -5 -9 -27 -20 -49 -11 -22 -20
-53 -20 -70 0 -43 -14 -66 -62 -100 -23 -17 -36 -30 -30 -30 6 0 30 15 54 33
31 23 53 54 80 107 45 93 55 137 34 158 -14 14 -16 13 -26 -12z"/>
<path d="M3291 2371 c-10 -17 -9 -21 3 -21 20 0 27 13 16 29 -6 11 -10 9 -19
-8z"/>
<path d="M4326 2368 c-8 -13 -23 -49 -34 -80 -32 -91 -63 -139 -117 -180 -49
-37 -65 -70 -35 -75 22 -4 105 61 139 108 40 54 93 184 89 216 -4 35 -23 40
-42 11z"/>
<path d="M1534 2356 c-111 -50 -171 -227 -130 -382 47 -176 193 -327 330 -341
66 -7 133 21 170 71 34 44 66 146 66 208 0 161 -117 363 -247 428 -58 29 -145
36 -189 16z m183 -107 c146 -71 224 -337 132 -454 -69 -86 -186 -73 -279 32
-73 83 -94 135 -94 233 -1 70 3 93 22 128 43 80 130 104 219 61z"/>
<path d="M1613 2214 c-35 -18 -63 -66 -71 -126 -3 -24 -12 -43 -23 -49 -26
-13 -24 -31 11 -104 54 -113 160 -184 230 -155 17 7 43 29 58 48 25 32 27 43
27 121 -1 69 -5 94 -23 129 -31 58 -85 116 -126 136 -41 19 -43 19 -83 0z
m106 -98 c58 -31 88 -125 58 -185 -19 -38 -6 -42 14 -4 8 14 13 48 12 75 -2
54 10 63 25 19 16 -46 -9 -132 -44 -145 -55 -21 -144 15 -178 73 -12 22 -20
53 -20 83 0 83 60 121 133 84z"/>
<path d="M1627 2082 c-45 -49 9 -172 75 -172 26 0 58 40 58 72 0 83 -89 149
-133 100z"/>
<path d="M2212 2361 c2 -4 18 -35 35 -71 18 -36 39 -90 46 -120 15 -58 34 -73
64 -49 12 11 14 26 9 79 -6 67 -22 127 -37 144 -9 11 -121 26 -117 17z"/>
<path d="M2504 2355 c-4 -8 -22 -22 -41 -31 -23 -12 -32 -22 -28 -32 3 -8 8
-41 12 -73 4 -44 10 -60 23 -64 11 -3 58 14 113 41 98 49 110 63 99 117 -6 30
-21 18 -24 -20 -5 -59 -29 -54 -83 16 -48 63 -62 72 -71 46z"/>
<path d="M2391 2337 c-7 -10 -8 -24 -1 -48 6 -19 12 -65 15 -104 4 -70 4 -70
34 -73 34 -4 42 13 11 23 -21 7 -26 20 -34 95 -2 25 -8 55 -11 67 -5 17 -1 25
22 37 l28 15 -26 1 c-15 0 -32 -6 -38 -13z"/>
<path d="M2607 2324 c9 -15 19 -21 21 -15 6 19 -6 41 -23 41 -14 0 -13 -3 2
-26z"/>
<path d="M2915 2340 c-3 -5 -32 -17 -63 -26 -31 -9 -60 -22 -64 -28 -11 -16
-10 -108 1 -125 7 -10 22 -12 60 -8 87 10 91 15 91 112 0 77 -8 102 -25 75z"/>
<path d="M2975 2310 c-13 -41 3 -57 76 -80 58 -17 82 -32 135 -81 67 -63 75
-67 92 -46 13 15 18 189 7 207 -5 8 -20 10 -44 6 -102 -17 -148 -18 -179 -2
-43 22 -79 21 -87 -4z"/>
<path d="M2720 2292 c0 -52 -28 -82 -117 -123 -47 -21 -94 -50 -105 -64 -13
-17 -29 -25 -51 -25 -18 0 -39 -5 -47 -10 -13 -8 -13 -11 0 -23 13 -12 36 -8
165 30 83 24 156 48 164 52 11 5 14 27 12 87 -1 43 -7 83 -12 89 -5 5 -9 1 -9
-13z"/>
<path d="M4051 2231 c-25 -59 -26 -67 -5 -75 35 -13 71 -5 97 22 15 15 27 33
27 38 0 6 -22 23 -49 37 l-49 27 -21 -49z"/>
<path d="M3330 2188 c0 -46 4 -78 10 -78 13 0 13 120 0 140 -7 10 -10 -9 -10
-62z"/>
<path d="M3015 2158 c-16 -5 -36 -11 -43 -14 -9 -2 8 -23 42 -55 31 -28 68
-73 83 -100 16 -27 35 -49 44 -49 26 0 89 29 95 44 14 36 -65 137 -131 167
-45 21 -49 21 -90 7z"/>
<path d="M3498 2123 c7 -3 16 -2 19 1 4 3 -2 6 -13 5 -11 0 -14 -3 -6 -6z"/>
<path d="M3991 2116 c-20 -23 10 -38 49 -25 l33 12 -24 13 c-31 17 -44 17 -58
0z"/>
<path d="M2808 2108 c-35 -12 -35 -24 0 -42 39 -20 118 -107 136 -150 15 -36
17 -37 63 -34 38 2 48 0 51 -14 2 -11 -8 -20 -32 -28 -20 -6 -36 -15 -37 -18
-2 -35 -3 -142 -1 -142 1 0 19 7 38 15 34 14 35 14 32 -8 -2 -15 -18 -30 -50
-46 -61 -31 -62 -45 -3 -24 56 19 81 49 95 119 18 85 -4 172 -68 271 -60 93
-144 131 -224 101z"/>
<path d="M2312 2083 c-22 -9 -34 -41 -22 -63 20 -37 70 -19 70 25 0 12 -5 26
-12 33 -13 13 -16 13 -36 5z"/>
<path d="M3538 2059 c3 -20 -3 -45 -17 -70 -12 -22 -21 -48 -19 -58 3 -17 13
-11 65 35 68 60 70 72 18 104 -44 27 -52 25 -47 -11z"/>
<path d="M3915 2064 c-42 -21 -53 -34 -30 -34 30 0 86 23 82 34 -5 16 -21 17
-52 0z"/>
<path d="M2577 2046 c-37 -13 -70 -26 -73 -29 -3 -3 12 -15 34 -26 51 -26 113
-96 146 -166 14 -30 28 -55 31 -55 15 0 192 73 202 83 29 29 -64 155 -146 197
-51 26 -108 25 -194 -4z"/>
<path d="M3287 2063 c-19 -18 1 -145 27 -171 13 -13 17 -13 32 -1 14 11 15 25
10 83 -4 38 -11 75 -17 83 -12 14 -41 17 -52 6z"/>
<path d="M3390 1971 c0 -102 4 -113 42 -103 21 5 27 21 35 93 9 87 0 109 -42
109 l-35 0 0 -99z"/>
<path d="M3993 2036 c-40 -18 -75 -35 -79 -39 -8 -8 35 -137 46 -137 10 0 66
24 175 75 44 20 90 41 103 46 23 9 28 34 12 59 -7 12 -16 9 -53 -17 -24 -18
-50 -33 -57 -35 -8 -2 -23 15 -35 36 -11 22 -25 41 -30 42 -6 2 -43 -12 -82
-30z"/>
<path d="M2154 2036 c-62 -19 -64 -22 -53 -56 18 -51 31 -54 102 -23 l64 28
-15 32 c-17 37 -32 39 -98 19z"/>
<path d="M3667 2009 c7 -7 15 -10 18 -7 3 3 -2 9 -12 12 -14 6 -15 5 -6 -5z"/>
<path d="M3746 1989 c-30 -16 -49 -19 -82 -14 -41 6 -45 5 -64 -27 -28 -47
-25 -51 20 -28 21 11 46 20 55 20 19 0 111 37 140 57 19 12 18 13 -5 13 -14
-1 -42 -10 -64 -21z"/>
<path d="M3865 1990 c3 -5 8 -10 11 -10 2 0 4 5 4 10 0 6 -5 10 -11 10 -5 0
-7 -4 -4 -10z"/>
<path d="M2376 1981 c-6 -10 30 -31 54 -31 25 0 111 -96 140 -157 53 -109 54
-277 2 -336 -24 -27 -9 -29 29 -4 101 68 102 289 0 423 -50 67 -105 103 -167
110 -33 4 -54 3 -58 -5z"/>
<path d="M3770 1946 c-25 -13 -69 -29 -98 -37 -29 -7 -57 -18 -61 -24 -9 -11
-32 -98 -27 -102 3 -3 55 19 161 67 56 26 95 64 95 95 0 31 -12 31 -70 1z"/>
<path d="M2245 1921 c-69 -42 -95 -96 -95 -195 0 -72 27 -136 97 -234 50 -71
86 -92 156 -92 55 0 103 31 135 85 20 35 22 51 20 130 -3 77 -8 100 -34 155
-17 36 -45 79 -62 97 -67 69 -157 91 -217 54z m123 -111 c39 -24 67 -67 87
-135 14 -44 14 -55 0 -103 -18 -61 -43 -78 -99 -68 -110 21 -181 234 -102 303
33 28 71 29 114 3z"/>
<path d="M2284 1782 c-48 -32 -41 -145 14 -205 26 -29 71 -49 92 -42 27 9 26
35 0 28 -31 -8 -78 16 -101 53 -39 63 -20 154 33 154 10 0 18 5 18 10 0 12
-40 13 -56 2z"/>
<path d="M2301 1717 c-19 -49 23 -127 68 -127 26 0 34 14 34 62 0 70 -81 122
-102 65z"/>
<path d="M3882 1919 c-10 -15 -11 -24 -3 -32 17 -17 36 8 25 33 l-9 20 -13
-21z"/>
<path d="M3182 1899 l-43 -19 7 -62 c4 -35 8 -64 9 -66 6 -7 75 28 94 47 35
35 25 123 -13 120 -6 0 -30 -9 -54 -20z"/>
<path d="M2006 1855 c-4 -22 -9 -48 -11 -58 -2 -9 1 -15 6 -12 11 7 22 68 17
92 -3 11 -8 2 -12 -22z"/>
<path d="M3488 1858 c-41 -25 -48 -34 -48 -62 0 -18 -6 -38 -12 -45 -27 -29
47 0 78 31 31 29 52 85 37 99 -5 4 -29 -7 -55 -23z"/>
<path d="M3836 1861 c-7 -11 46 -31 82 -31 20 0 22 3 13 14 -7 8 -20 14 -29
14 -9 -1 -27 2 -39 6 -12 4 -24 3 -27 -3z"/>
<path d="M2043 1822 c-16 -53 -30 -79 -56 -109 -33 -37 -29 -41 14 -16 31 18
73 73 83 109 5 16 1 23 -14 27 -14 4 -23 0 -27 -11z"/>
<path d="M3306 1818 c-25 -36 -21 -86 9 -100 50 -23 111 55 79 101 -20 29 -68
28 -88 -1z"/>
<path d="M2835 1762 c-113 -46 -113 -47 -108 -75 3 -13 0 -47 -5 -75 -5 -29
-8 -52 -6 -52 2 0 47 19 101 41 122 52 135 65 131 137 -2 31 -7 57 -13 58 -5
2 -51 -14 -100 -34z"/>
<path d="M3184 1720 c-12 -5 -25 -14 -29 -20 -6 -10 62 13 74 25 7 8 -22 4
-45 -5z"/>
<path d="M2057 1694 l-29 -16 24 -25 c12 -14 36 -32 52 -40 28 -15 29 -14 23
9 -4 12 -7 38 -7 56 0 37 -17 41 -63 16z"/>
<path d="M3393 1664 c-50 -22 -52 -25 -43 -49 6 -15 10 -40 10 -56 0 -16 2
-29 5 -29 3 0 28 11 55 25 47 24 50 28 50 64 0 42 -8 72 -19 70 -3 0 -30 -11
-58 -25z"/>
<path d="M3217 1663 c-12 -11 -8 -21 24 -57 25 -30 30 -43 28 -78 -3 -48 12
-54 44 -16 44 52 -3 158 -71 158 -10 0 -22 -3 -25 -7z"/>
<path d="M3005 1578 c-283 -132 -438 -198 -464 -198 -34 0 -71 -10 -71 -20 0
-10 77 -38 127 -46 37 -6 57 1 178 55 188 86 206 72 23 -17 l-148 -72 0 -55
c0 -31 4 -55 10 -55 11 0 133 54 319 141 57 27 105 49 108 49 2 0 33 17 68 37
46 26 67 45 75 66 9 28 4 77 -8 77 -3 0 -58 -25 -123 -55 -120 -57 -139 -63
-139 -44 0 5 59 38 130 71 72 34 130 67 130 75 0 7 -4 13 -8 13 -5 0 -15 11
-22 25 -7 14 -18 25 -24 24 -6 0 -78 -32 -161 -71z"/>
<path d="M1883 1623 c-39 -8 -26 -19 60 -53 45 -18 124 -50 175 -72 52 -22 96
-38 98 -35 10 10 -62 80 -96 95 -68 29 -193 72 -204 71 -6 -1 -21 -4 -33 -6z"/>
<path d="M2801 1552 c-57 -26 -106 -53 -109 -60 -3 -10 6 -9 34 4 22 9 67 27
100 41 34 13 70 33 80 44 24 27 13 24 -105 -29z"/>
<path d="M1700 1542 c0 -50 -40 -31 593 -283 136 -55 250 -99 252 -99 3 0 5
26 5 59 0 57 -1 59 -34 75 -19 9 -49 16 -68 16 -29 0 -167 44 -248 79 -31 13
-447 166 -477 176 -20 6 -23 3 -23 -23z"/>
<path d="M2588 1233 c-5 -71 0 -93 19 -93 11 0 13 15 11 72 -4 90 -24 105 -30
21z"/>
<path d="M1156 844 c-14 -13 -16 -55 -16 -299 0 -310 2 -320 59 -313 47 5 51
30 51 318 0 224 -2 269 -16 288 -18 26 -56 29 -78 6z"/>
<path d="M3126 844 c-14 -13 -16 -55 -16 -299 0 -308 1 -315 55 -315 51 0 55
21 55 315 0 229 -2 274 -16 293 -18 26 -56 29 -78 6z"/>
<path d="M4086 844 c-14 -13 -16 -54 -16 -298 0 -261 1 -284 18 -299 26 -24
59 -21 77 7 23 35 18 582 -5 596 -23 15 -57 12 -74 -6z"/>
<path d="M4638 669 c-2 -94 0 -173 3 -175 16 -9 72 11 85 31 19 29 28 128 19
210 -8 76 -28 105 -75 105 l-29 0 -3 -171z"/>
</g>
</svg>
