<?xml version="1.0" standalone="no"?>
<!DOCTYPE svg PUBLIC "-//W3C//DTD SVG 20010904//EN"
 "http://www.w3.org/TR/2001/REC-SVG-20010904/DTD/svg10.dtd">
<svg version="1.0" xmlns="http://www.w3.org/2000/svg"
 width="447.000000pt" height="628.000000pt" viewBox="0 0 447.000000 628.000000"
 preserveAspectRatio="xMidYMid meet">

<g transform="translate(0.000000,628.000000) scale(0.100000,-0.100000)"
fill="#000000" stroke="none">
<path d="M1042 6263 c-5 -10 -12 -35 -16 -55 -8 -44 -20 -52 -103 -69 l-62
-13 -45 42 c-25 23 -54 42 -63 42 -28 0 -154 -73 -175 -100 -16 -22 -17 -31
-6 -82 l12 -56 -57 -56 c-31 -31 -61 -56 -66 -56 -5 0 -25 7 -44 15 -52 21
-74 19 -103 -12 -40 -43 -84 -128 -84 -161 0 -23 10 -42 40 -71 l39 -39 -20
-73 c-11 -40 -22 -76 -25 -80 -2 -4 -29 -13 -58 -19 -30 -6 -60 -18 -68 -27
-14 -17 -18 -169 -6 -214 8 -27 35 -42 94 -54 28 -5 34 -13 53 -69 30 -88 28
-105 -19 -147 -25 -23 -40 -46 -40 -60 0 -34 88 -175 118 -188 20 -10 36 -8
78 5 l52 16 63 -61 63 -61 -13 -49 c-7 -28 -10 -59 -6 -70 10 -33 150 -111
198 -111 12 0 39 18 62 40 l40 39 73 -18 c88 -23 99 -31 107 -83 11 -65 32
-78 122 -77 43 0 94 5 113 12 32 11 36 17 49 69 l13 58 65 20 c84 26 88 26
120 -11 46 -52 68 -55 139 -18 34 17 77 44 95 59 l34 27 -13 63 -13 63 53 54
c47 48 56 54 83 48 17 -3 49 -9 71 -12 40 -5 43 -3 72 39 41 60 72 123 72 148
0 11 -18 40 -40 64 -22 24 -40 49 -40 56 0 7 9 44 20 81 20 66 22 68 58 74 66
10 86 26 95 75 11 59 3 176 -13 195 -6 8 -28 17 -49 20 -72 12 -78 18 -97 99
l-17 75 41 45 c23 25 42 51 42 58 0 16 -43 100 -77 150 -32 48 -52 53 -113 33
l-50 -17 -60 54 c-62 55 -69 73 -49 124 5 16 8 39 4 51 -7 30 -129 112 -177
120 -32 5 -41 1 -82 -37 l-46 -43 -72 19 c-76 21 -80 25 -97 92 l-12 42 -124
0 c-108 0 -125 -2 -133 -17z m214 -84 c8 -26 20 -51 26 -57 19 -15 159 -52
198 -52 26 0 43 9 71 36 l37 37 66 -37 c64 -36 64 -36 55 -69 -18 -65 -13 -79
64 -154 93 -92 103 -96 161 -79 l46 14 40 -58 39 -58 -33 -38 c-18 -22 -36
-49 -40 -61 -7 -21 26 -169 45 -205 6 -10 35 -25 69 -35 l60 -16 0 -73 0 -73
-37 -10 c-21 -6 -43 -11 -50 -11 -16 0 -53 -49 -53 -71 0 -10 -6 -38 -14 -61
-32 -96 -31 -103 13 -151 23 -24 41 -47 41 -49 0 -11 -71 -123 -78 -123 -4 1
-26 6 -49 13 -57 17 -78 7 -157 -79 -58 -63 -67 -77 -62 -101 20 -93 23 -83
-39 -123 l-57 -36 -27 24 c-64 60 -70 61 -171 33 -103 -28 -126 -43 -135 -90
-14 -70 -10 -67 -88 -64 l-71 3 -18 50 c-10 28 -25 55 -33 61 -18 13 -173 54
-205 54 -11 0 -38 -17 -61 -37 l-40 -37 -65 32 c-65 32 -65 33 -57 65 18 73
10 94 -58 164 -81 83 -115 99 -165 78 -20 -8 -42 -15 -48 -15 -7 0 -29 28 -49
62 l-37 62 29 31 c50 51 54 76 30 174 -12 47 -26 94 -31 103 -4 9 -33 25 -64
35 -31 9 -59 23 -61 30 -3 8 -2 43 2 78 6 60 8 65 31 65 14 0 40 6 58 14 29
12 36 22 54 82 42 139 41 152 -10 210 l-32 36 29 55 c17 31 35 57 42 60 6 2
30 -2 54 -10 24 -8 51 -12 60 -8 10 3 52 40 94 81 84 81 79 67 63 174 -2 15
12 28 56 53 l59 33 43 -40 c49 -45 53 -46 136 -24 123 31 135 40 153 100 l16
55 71 -3 71 -3 13 -46z"/>
<path d="M1030 5895 c-231 -52 -425 -242 -486 -475 -54 -208 13 -446 171 -605
217 -219 573 -253 827 -79 337 230 384 688 99 974 -84 84 -152 127 -263 167
-92 32 -249 40 -348 18z m253 -50 c281 -50 492 -299 490 -580 -1 -150 -58
-288 -163 -399 -147 -155 -369 -220 -579 -171 -210 50 -386 227 -436 437 -75
318 145 655 466 713 96 17 128 17 222 0z"/>
<path d="M1036 5784 c-177 -43 -334 -199 -381 -379 -17 -68 -19 -199 -4 -265
28 -121 121 -249 234 -322 235 -152 569 -89 731 138 155 217 133 499 -55 684
-111 109 -237 160 -391 159 -41 0 -101 -7 -134 -15z m224 -45 c175 -27 328
-161 382 -332 26 -84 26 -212 -1 -290 -101 -293 -448 -420 -718 -261 -100 58
-196 189 -222 304 -24 105 -6 235 47 334 40 76 139 171 214 206 96 45 188 57
298 39z"/>
<path d="M3543 5538 c-6 -7 -16 -30 -23 -51 -12 -39 -26 -48 -87 -60 -29 -6
-38 -1 -72 33 -22 22 -44 40 -50 40 -6 0 -40 -13 -75 -29 -80 -36 -100 -63
-88 -119 11 -48 0 -69 -52 -101 -32 -20 -35 -20 -71 -5 -21 8 -49 13 -62 9
-27 -6 -103 -116 -103 -149 0 -11 16 -37 36 -57 l37 -38 -19 -53 c-19 -54 -26
-59 -95 -73 -32 -6 -37 -18 -45 -103 -7 -87 6 -112 68 -130 44 -12 47 -15 58
-61 13 -55 7 -73 -34 -108 -16 -15 -26 -33 -26 -50 0 -31 47 -118 79 -147 19
-17 25 -18 67 -6 l46 13 36 -36 c35 -35 36 -38 24 -70 -19 -52 -15 -81 16
-109 72 -67 107 -73 158 -28 l34 30 43 -17 c59 -23 67 -31 67 -68 0 -58 26
-77 113 -83 89 -5 112 7 123 64 7 36 11 38 89 48 38 4 42 2 71 -37 38 -51 60
-52 154 -5 l65 33 -3 54 c-3 57 6 74 60 113 25 17 30 18 57 3 58 -30 85 -21
135 44 55 71 58 103 17 155 l-29 36 21 54 c21 53 22 54 69 60 73 10 79 22 76
134 l-3 96 -45 17 c-43 16 -46 19 -60 73 l-14 57 43 37 c41 35 43 41 37 73 -3
19 -21 60 -39 90 l-33 54 -61 -2 -61 -3 -42 50 c-34 41 -39 52 -31 69 6 11 11
35 11 55 0 31 -6 39 -57 75 -67 49 -101 52 -155 14 l-39 -26 -53 16 c-51 16
-54 19 -60 57 -10 67 -32 80 -130 80 -55 0 -87 -4 -93 -12z m162 -93 c15 -58
19 -62 94 -85 88 -26 110 -25 151 5 l34 25 40 -24 c32 -19 40 -30 38 -48 -2
-13 -5 -39 -8 -58 -4 -32 2 -41 56 -99 l60 -64 55 2 55 2 22 -46 22 -46 -37
-34 c-42 -38 -45 -56 -23 -148 16 -66 36 -93 77 -102 38 -8 40 -13 32 -73 -6
-50 -7 -52 -42 -58 -20 -3 -43 -8 -52 -10 -19 -5 -71 -130 -71 -169 0 -15 9
-40 21 -55 27 -37 26 -42 -3 -89 l-25 -39 -43 16 c-59 21 -83 12 -152 -52 -58
-54 -59 -54 -52 -99 l7 -46 -48 -21 -47 -21 -35 42 -34 41 -66 -7 c-98 -10
-125 -24 -139 -74 -12 -37 -16 -41 -45 -41 -61 0 -77 10 -77 44 0 48 -23 72
-98 100 -84 32 -93 32 -131 0 l-31 -26 -36 22 c-25 16 -33 27 -29 39 23 55 18
86 -24 138 -53 68 -70 77 -122 63 -23 -6 -42 -10 -43 -8 -56 79 -58 93 -16
130 34 30 35 44 16 136 -16 74 -18 77 -71 95 -40 14 -40 14 -43 70 l-3 56 46
7 c52 7 70 27 81 89 3 22 11 48 16 58 13 25 3 59 -28 96 l-25 31 23 41 c19 35
26 40 48 35 96 -22 94 -23 176 54 46 43 46 44 40 95 l-6 51 47 23 46 22 24
-30 c13 -16 36 -32 51 -36 56 -12 192 34 192 66 0 4 4 19 10 34 9 24 14 26 62
23 52 -3 52 -3 63 -43z"/>
<path d="M3466 5239 c-21 -5 -69 -25 -107 -45 -206 -108 -317 -354 -264 -582
66 -280 345 -451 637 -391 141 29 281 132 346 255 160 305 -1 672 -334 759
-64 16 -215 19 -278 4z m261 -53 c185 -49 326 -206 356 -395 42 -274 -184
-531 -467 -531 -127 0 -243 47 -337 137 -103 98 -145 211 -137 369 5 104 37
185 107 269 112 135 307 196 478 151z"/>
<path d="M3512 5130 c-210 -45 -341 -245 -304 -466 34 -208 194 -344 401 -344
256 1 426 184 408 441 -10 156 -110 299 -244 349 -65 24 -194 34 -261 20z
m265 -81 c68 -33 120 -85 155 -158 20 -40 23 -62 23 -161 0 -106 -2 -119 -27
-167 -41 -76 -82 -118 -149 -152 -73 -37 -145 -46 -229 -31 -117 21 -208 88
-257 189 -25 51 -28 66 -28 166 0 101 2 114 27 162 49 93 140 162 242 183 73
16 174 3 243 -31z"/>
<path d="M2071 4268 c-17 -9 -33 -36 -52 -88 -31 -85 -33 -87 -166 -91 -82 -2
-90 2 -123 65 -48 94 -80 104 -220 67 -142 -37 -135 -29 -145 -157 l-7 -81
-95 -46 c-106 -51 -118 -51 -173 8 -31 33 -71 55 -103 55 -33 0 -209 -119
-225 -152 -11 -24 -9 -36 18 -103 22 -57 27 -81 20 -95 -16 -30 -154 -150
-173 -150 -10 0 -40 11 -67 25 -62 32 -110 32 -137 3 -12 -13 -46 -58 -77
-102 -73 -102 -73 -119 -1 -195 30 -32 55 -65 55 -74 0 -9 -21 -60 -47 -112
l-48 -95 -88 1 c-69 1 -92 -2 -106 -15 -21 -19 -53 -112 -71 -203 -16 -81 -3
-102 88 -146 l67 -32 -3 -110 c-3 -101 -5 -112 -27 -131 -13 -12 -44 -25 -68
-28 -25 -4 -57 -16 -71 -27 -24 -19 -26 -26 -26 -103 0 -106 15 -186 40 -210
13 -14 41 -22 91 -27 40 -5 79 -15 87 -23 12 -11 71 -192 72 -218 0 -3 -29
-27 -65 -53 -41 -29 -67 -55 -71 -72 -8 -29 19 -103 72 -199 45 -82 66 -90
168 -62 55 15 79 18 88 10 8 -6 40 -50 72 -97 l59 -87 -17 -31 c-9 -18 -28
-50 -41 -72 -14 -22 -25 -49 -25 -61 0 -13 28 -48 73 -92 137 -134 152 -139
239 -74 30 23 63 42 74 42 10 0 55 -24 99 -53 l80 -52 -1 -45 c-1 -25 -5 -70
-9 -101 -7 -55 -7 -56 24 -78 43 -31 190 -91 223 -91 43 0 55 9 99 76 23 35
48 64 56 64 44 0 192 -43 197 -57 4 -9 11 -48 17 -87 6 -46 16 -78 29 -90 22
-23 87 -35 191 -35 103 -1 122 14 144 114 10 41 20 77 24 79 3 2 40 6 81 8
l75 3 35 -66 c47 -89 57 -99 96 -99 44 0 162 25 214 46 53 21 62 45 54 143
l-7 77 74 33 c41 18 79 35 86 38 6 2 41 -23 77 -56 83 -77 103 -79 206 -15
139 85 154 117 105 214 -14 27 -25 58 -25 68 0 11 21 37 47 58 26 21 60 51 75
66 36 35 45 35 118 -2 62 -31 98 -37 130 -20 22 12 124 140 146 183 19 36 12
57 -41 118 -71 79 -71 74 -12 180 l52 94 100 -4 c122 -4 118 -7 170 142 50
142 46 157 -50 210 -39 21 -74 42 -78 46 -10 10 18 220 31 233 5 5 39 16 76
24 106 25 111 32 111 161 0 188 -8 201 -139 221 -37 6 -70 13 -73 16 -7 7 -53
189 -53 211 0 13 15 30 43 47 23 15 55 41 72 58 28 30 29 31 16 77 -6 26 -30
85 -51 130 -47 101 -65 112 -149 95 -108 -23 -109 -22 -173 76 -32 49 -58 94
-58 101 0 7 18 38 40 70 23 32 40 69 40 84 0 29 -37 75 -125 159 -64 61 -92
67 -147 34 -24 -14 -57 -33 -75 -42 l-31 -17 -87 63 c-48 34 -89 68 -91 74 -3
7 2 31 11 55 20 59 20 125 -2 147 -35 34 -195 104 -239 104 -41 0 -45 -3 -89
-60 -26 -34 -54 -60 -63 -59 -9 0 -60 13 -112 27 -105 30 -107 33 -109 123 -1
57 -28 95 -79 109 -65 17 -214 23 -241 8z m236 -82 c4 -3 10 -37 15 -74 4 -39
16 -77 26 -92 24 -31 161 -79 249 -87 l62 -6 58 62 58 62 75 -34 c102 -47 108
-54 87 -121 -25 -79 -22 -107 16 -142 52 -50 197 -144 220 -144 12 0 55 16 95
37 l72 37 54 -53 c83 -82 85 -88 43 -152 -34 -51 -41 -72 -38 -111 0 -9 33
-64 72 -122 50 -76 77 -108 96 -112 26 -7 137 0 163 11 11 4 27 -17 58 -80 23
-47 42 -91 42 -99 0 -7 -25 -30 -56 -50 -73 -49 -87 -80 -70 -161 25 -118 49
-190 70 -212 15 -17 41 -25 98 -34 89 -13 88 -10 88 -142 0 -62 -4 -89 -12
-91 -7 -2 -40 -9 -72 -16 -91 -19 -98 -31 -121 -192 -14 -102 -16 -144 -8
-161 7 -14 40 -39 82 -61 39 -20 71 -40 71 -44 0 -4 -14 -49 -32 -100 l-31
-92 -87 6 c-81 6 -87 5 -112 -17 -14 -13 -52 -75 -84 -136 l-58 -113 17 -34
c9 -19 32 -53 52 -74 19 -22 35 -45 35 -51 0 -16 -101 -161 -112 -161 -5 0
-35 14 -68 30 -104 52 -124 45 -262 -89 -79 -76 -83 -94 -43 -192 l24 -60 -77
-50 c-42 -27 -83 -49 -89 -49 -7 0 -38 22 -68 50 -30 27 -65 52 -78 55 -30 8
-203 -60 -234 -92 -20 -19 -23 -32 -23 -107 0 -71 -3 -87 -17 -94 -32 -16
-162 -44 -173 -37 -6 3 -24 33 -40 65 -16 32 -42 68 -57 80 -26 20 -35 22
-118 15 -62 -4 -98 -12 -115 -24 -23 -17 -50 -77 -64 -143 l-6 -28 -89 0 c-65
0 -94 4 -104 14 -8 8 -19 48 -25 88 -8 52 -17 78 -31 89 -22 18 -162 59 -227
66 -55 7 -78 -8 -120 -73 -42 -66 -53 -67 -153 -19 l-74 36 8 52 c20 133 16
141 -129 231 -110 69 -140 72 -212 21 -27 -19 -57 -35 -67 -35 -19 0 -147 116
-147 132 0 6 14 29 30 52 46 64 54 102 30 151 -30 59 -131 187 -161 204 -24
13 -35 13 -108 -4 -80 -18 -82 -18 -96 1 -21 29 -75 142 -75 158 0 8 20 29 44
45 57 40 86 77 86 111 0 38 -67 244 -88 269 -18 23 -74 40 -133 41 -20 0 -42
6 -48 14 -6 7 -14 56 -18 109 l-6 95 57 13 c68 15 114 41 125 72 4 12 11 81
15 154 8 151 11 145 -89 198 -32 16 -60 35 -62 42 -6 14 24 147 39 176 7 14
23 17 89 17 44 0 89 5 100 11 31 16 129 223 129 271 0 34 -7 47 -57 99 l-56
59 24 33 c13 18 38 51 54 74 17 23 37 42 45 43 9 0 41 -9 73 -20 102 -36 109
-33 231 85 122 118 119 110 69 223 -13 30 -20 58 -16 62 4 4 42 30 84 58 l76
51 39 -35 c90 -81 117 -88 191 -49 27 13 80 39 120 56 39 17 75 39 79 48 4 9
10 52 13 96 l6 80 50 17 c28 9 71 19 97 23 l47 7 29 -58 c49 -98 50 -98 202
-90 72 4 142 12 155 18 26 12 47 49 65 117 l11 44 100 -5 c55 -3 102 -8 106
-12z"/>
<path d="M1745 3815 c-601 -94 -1106 -571 -1250 -1180 -116 -490 13 -987 358
-1377 207 -236 545 -421 882 -484 149 -28 462 -26 598 4 312 69 560 203 777
421 188 189 317 395 394 631 89 273 93 592 11 875 -166 571 -653 1005 -1242
1105 -135 23 -398 26 -528 5z m578 -74 c795 -172 1319 -954 1161 -1736 -25
-122 -59 -218 -129 -360 -211 -429 -611 -729 -1080 -811 -148 -26 -396 -24
-540 4 -310 61 -571 198 -785 412 -204 204 -335 447 -406 755 -27 113 -27 443
-1 562 103 470 393 850 808 1058 101 51 287 111 399 129 138 22 441 15 573
-13z"/>
<path d="M1855 3668 c-109 -12 -285 -60 -392 -106 -303 -133 -553 -362 -696
-639 -59 -115 -119 -293 -121 -358 l-1 -50 55 -6 c58 -7 679 -1 717 7 15 3 36
28 64 76 54 93 148 185 235 230 79 42 127 56 239 72 93 14 68 -19 204 266 187
390 211 444 207 456 -6 15 -105 41 -206 54 -97 12 -191 11 -305 -2z m380 -71
c33 -7 59 -17 58 -22 -4 -25 -277 -582 -292 -598 -12 -12 -49 -23 -107 -33
-183 -30 -364 -151 -456 -306 l-40 -68 -345 0 -345 0 7 38 c12 65 45 154 95
257 126 260 343 477 615 613 101 50 282 108 382 121 43 6 92 13 108 15 50 7
256 -4 320 -17z"/>
<path d="M2458 3582 c-20 -23 -328 -658 -328 -676 0 -8 30 -25 70 -40 39 -14
88 -37 108 -51 20 -14 44 -25 53 -25 24 0 375 658 362 679 -11 18 -122 79
-199 110 -49 19 -53 19 -66 3z m126 -97 c42 -19 76 -37 76 -41 0 -6 -281 -544
-298 -572 -6 -9 -26 -5 -86 20 -43 18 -75 37 -74 44 8 35 285 583 294 584 6 0
46 -16 88 -35z"/>
<path d="M2805 3394 c-8 -9 -25 -35 -37 -58 -11 -22 -85 -158 -164 -302 -158
-287 -164 -304 -118 -365 127 -169 152 -385 68 -581 -23 -54 -33 -90 -29 -106
3 -14 52 -72 109 -131 56 -58 171 -184 255 -278 93 -106 160 -173 171 -173 21
0 80 67 142 165 86 132 137 254 179 425 20 83 23 119 23 290 1 180 -2 204 -27
305 -77 307 -210 533 -433 735 -37 34 -80 68 -95 76 -24 12 -30 12 -44 -2z
m158 -176 c264 -264 398 -600 384 -968 -9 -252 -80 -470 -222 -691 -49 -76
-62 -87 -78 -66 -7 8 -112 126 -235 261 l-223 246 33 92 c31 88 33 100 33 228
-1 124 -3 141 -29 210 -16 41 -46 103 -68 137 -22 34 -38 69 -36 77 7 33 314
576 325 576 7 0 59 -46 116 -102z"/>
<path d="M1860 2807 c-172 -59 -293 -178 -356 -351 -47 -131 -41 -243 21 -375
66 -138 198 -239 360 -277 248 -57 547 122 625 373 81 264 -94 565 -371 638
-82 22 -202 19 -279 -8z m293 -37 c155 -48 280 -182 316 -340 15 -64 13 -206
-3 -266 -36 -136 -142 -255 -269 -302 -346 -130 -677 97 -677 463 0 226 125
394 333 450 80 21 222 19 300 -5z"/>
<path d="M1910 2706 c-126 -27 -212 -92 -265 -200 -79 -160 -47 -365 78 -490
182 -182 536 -116 644 120 89 196 5 448 -180 538 -90 44 -176 54 -277 32z
m246 -86 c73 -36 127 -92 162 -169 56 -121 25 -285 -71 -379 -177 -173 -476
-108 -574 125 -9 24 -16 67 -16 115 0 64 5 86 30 140 88 184 289 257 469 168z"/>
<path d="M616 2342 c-7 -84 1 -169 17 -189 12 -16 772 -19 781 -4 4 5 3 68 0
140 l-7 131 -392 0 -392 0 -7 -78z m742 -54 l3 -88 -341 0 -340 0 0 90 0 90
338 -2 337 -3 3 -87z"/>
<path d="M705 2061 l-60 -6 1 -45 c2 -61 56 -220 113 -329 135 -264 372 -498
636 -629 229 -114 494 -166 723 -143 247 26 552 129 552 188 0 14 -93 124
-393 466 l-138 157 -128 0 c-139 0 -195 12 -293 61 -82 41 -173 121 -221 194
-23 35 -51 68 -62 74 -22 11 -635 21 -730 12z m745 -124 c121 -167 275 -254
489 -276 48 -5 107 -7 132 -4 l45 5 237 -270 c130 -149 237 -276 237 -282 0
-23 -194 -91 -343 -121 -118 -23 -322 -25 -448 -5 -486 79 -891 424 -1063 904
-44 124 -79 112 322 112 l347 0 45 -63z"/>
<path d="M2404 1877 c-27 -24 -75 -60 -106 -80 -32 -20 -58 -41 -58 -46 0 -14
519 -605 534 -609 24 -5 216 153 216 178 0 16 -99 133 -256 303 -86 92 -180
197 -210 232 -31 36 -59 65 -64 65 -4 0 -30 -20 -56 -43z m289 -292 c125 -141
225 -260 222 -265 -7 -12 -119 -98 -132 -102 -5 -2 -61 56 -124 128 -211 241
-334 385 -337 392 -1 4 13 16 32 26 19 10 47 31 62 47 15 16 33 29 39 29 6 0
113 -115 238 -255z"/>
<path d="M4440 3940 c0 -20 5 -30 15 -30 10 0 15 10 15 30 0 20 -5 30 -15 30
-10 0 -15 -10 -15 -30z"/>
<path d="M4455 3720 c-3 -5 -1 -10 4 -10 6 0 11 5 11 10 0 6 -2 10 -4 10 -3 0
-8 -4 -11 -10z"/>
<path d="M4433 3693 c-9 -3 -10 -10 -3 -24 15 -28 40 -24 40 6 0 24 -11 29
-37 18z"/>
<path d="M4433 3582 c-10 -6 -9 -13 3 -30 21 -30 34 -27 34 8 0 30 -13 37 -37
22z"/>
<path d="M4440 3305 c0 -16 6 -25 15 -25 9 0 15 9 15 25 0 16 -6 25 -15 25 -9
0 -15 -9 -15 -25z"/>
<path d="M4434 3042 c-16 -10 1 -52 21 -52 10 0 15 10 15 30 0 29 -13 38 -36
22z"/>
<path d="M4425 2920 c-8 -13 13 -40 31 -40 8 0 14 10 14 25 0 18 -5 25 -19 25
-11 0 -23 -5 -26 -10z"/>
<path d="M4438 2635 c-4 -19 -1 -25 13 -25 14 0 19 7 19 25 0 15 -6 25 -14 25
-7 0 -16 -11 -18 -25z"/>
<path d="M0 85 l0 -85 2235 0 2235 0 0 85 0 85 -2235 0 -2235 0 0 -85z"/>
</g>
</svg>
