<?xml version="1.0" standalone="no"?>
<!DOCTYPE svg PUBLIC "-//W3C//DTD SVG 20010904//EN"
 "http://www.w3.org/TR/2001/REC-SVG-20010904/DTD/svg10.dtd">
<svg version="1.0" xmlns="http://www.w3.org/2000/svg"
 width="455.000000pt" height="335.000000pt" viewBox="0 0 455.000000 335.000000"
 preserveAspectRatio="xMidYMid meet">

<g transform="translate(0.000000,335.000000) scale(0.100000,-0.100000)"
fill="#000000" stroke="none">
<path d="M1344 3232 c-12 -9 -25 -28 -29 -42 -17 -60 -31 -70 -99 -70 l-64 0
-31 50 c-17 28 -38 50 -48 50 -25 0 -166 -41 -180 -52 -8 -6 -13 -34 -13 -67
l0 -57 -55 -27 c-31 -15 -59 -27 -64 -27 -4 0 -25 14 -46 30 -21 17 -48 30
-60 30 -22 0 -127 -70 -154 -103 -12 -15 -11 -24 8 -69 l22 -52 -50 -50 -51
-50 -56 19 -57 19 -33 -39 c-18 -22 -45 -61 -59 -88 l-26 -47 20 -28 c11 -16
27 -35 36 -42 21 -17 18 -46 -8 -100 l-22 -45 -65 -5 -65 -5 -18 -55 c-10 -30
-19 -77 -20 -105 l-2 -49 50 -28 c28 -15 50 -32 49 -37 -1 -6 -2 -37 -3 -69
l-1 -59 -60 -26 c-53 -23 -60 -29 -60 -54 0 -58 21 -158 36 -169 8 -6 37 -14
64 -18 56 -8 53 -4 74 -75 l16 -53 -45 -44 c-25 -24 -45 -51 -45 -61 0 -22 79
-161 96 -167 7 -3 28 -1 46 5 61 17 81 11 116 -35 38 -50 38 -55 12 -106 -31
-61 -26 -82 27 -126 97 -81 97 -81 165 -36 33 22 41 23 67 12 16 -6 39 -22 50
-34 25 -27 71 -25 71 3 -1 23 -110 91 -146 91 -16 0 -46 -12 -67 -26 l-38 -25
-38 30 c-62 50 -63 51 -35 107 29 60 26 74 -36 153 l-43 54 -67 -7 -68 -6 -26
44 c-14 25 -26 51 -26 58 0 8 18 32 40 53 22 21 40 47 40 56 0 32 -42 154 -57
166 -8 6 -37 14 -64 18 -53 7 -53 7 -62 92 -6 47 0 55 55 72 20 7 42 19 49 27
6 8 13 51 15 97 3 93 -2 103 -67 133 -44 19 -44 19 -18 116 9 37 11 38 54 38
72 0 91 14 125 96 32 77 31 104 -5 134 -38 31 -38 49 -3 100 18 27 38 50 43
50 6 0 32 -7 58 -15 33 -10 55 -12 67 -5 23 12 120 128 120 143 0 6 -7 31 -16
54 -20 50 -14 60 52 99 l43 25 38 -29 c21 -16 45 -32 54 -35 8 -3 51 14 95 37
l79 41 3 60 3 61 62 17 c62 17 62 17 79 -6 60 -79 58 -77 101 -77 23 0 66 3
96 7 53 6 54 6 78 60 27 58 36 61 125 47 34 -6 38 -10 43 -43 12 -72 18 -78
110 -106 47 -15 94 -23 105 -20 11 3 33 23 50 43 l30 36 63 -31 64 -31 -10
-57 -11 -58 45 -38 c24 -21 61 -50 81 -65 l36 -26 47 21 c26 12 55 21 65 21
18 0 90 -80 90 -100 0 -6 -11 -28 -25 -48 -14 -20 -25 -42 -25 -49 0 -25 84
-153 104 -160 12 -3 42 -5 68 -4 l48 2 25 -57 c14 -31 25 -60 25 -64 0 -4 -18
-20 -39 -34 -22 -15 -42 -35 -46 -44 -6 -15 21 -160 34 -179 3 -6 31 -19 61
-29 l55 -20 3 -66 3 -65 -48 -12 c-67 -17 -80 -33 -94 -111 -15 -87 -8 -111
41 -144 45 -30 45 -31 21 -101 l-18 -50 -49 -3 c-84 -4 -91 -8 -129 -76 -19
-34 -35 -72 -35 -83 0 -11 13 -39 29 -63 27 -41 28 -45 14 -67 -14 -22 -14
-23 7 -23 31 0 60 18 60 38 0 10 -13 39 -30 65 -16 26 -30 51 -30 55 0 4 13
27 30 52 29 45 30 45 97 50 l68 5 26 65 c41 100 43 117 18 137 -83 68 -80 62
-68 131 l11 62 53 15 c29 9 59 23 66 31 15 18 7 178 -10 198 -7 8 -29 17 -49
21 -55 9 -62 16 -78 81 l-16 59 46 40 c26 23 46 49 46 60 0 29 -59 173 -73
178 -7 2 -36 1 -64 -3 -29 -3 -56 -4 -61 -1 -4 3 -22 29 -40 58 l-33 52 24 38
c41 63 42 76 2 124 -44 54 -95 98 -113 99 -7 0 -35 -10 -63 -21 l-49 -21 -55
41 c-59 45 -60 47 -44 104 5 21 8 45 5 55 -7 19 -61 53 -135 82 l-52 20 -43
-40 c-49 -45 -58 -47 -132 -24 -51 17 -52 18 -58 63 -4 25 -10 52 -15 59 -7
12 -132 42 -171 42 -8 0 -25 -8 -36 -18z"/>
<path d="M1154 2954 c-100 -16 -251 -70 -339 -119 -461 -257 -628 -851 -377
-1339 117 -227 304 -387 555 -472 58 -20 76 -22 119 -14 59 11 74 20 35 20
-37 0 -182 47 -252 83 -195 98 -361 268 -450 461 -62 132 -79 221 -79 396 0
180 17 258 84 399 146 305 430 508 772 551 174 22 366 -14 544 -102 570 -280
701 -1055 256 -1511 -80 -81 -141 -128 -236 -180 l-71 -38 58 5 c78 6 130 39
249 153 138 134 210 248 268 421 100 301 39 638 -164 901 -235 303 -600 448
-972 385z"/>
<path d="M1205 2860 c-99 -15 -251 -70 -337 -121 -159 -96 -268 -211 -347
-369 -42 -85 -91 -234 -79 -245 7 -7 104 -10 315 -7 l201 2 45 63 c75 104 155
153 282 172 l80 11 123 224 c68 122 119 226 115 230 -34 32 -285 57 -398 40z
m271 -51 c32 -6 64 -14 70 -17 7 -5 -29 -76 -100 -197 l-111 -190 -63 -7
c-117 -13 -229 -81 -300 -183 l-37 -54 -217 -1 c-251 0 -235 -8 -195 103 98
270 340 478 630 541 77 17 244 20 323 5z"/>
<path d="M1604 2693 c-81 -135 -173 -314 -174 -335 0 -28 29 -21 41 10 18 47
202 364 215 369 16 6 93 -34 100 -52 6 -16 -174 -324 -215 -368 -25 -28 -26
-29 -7 -43 11 -7 21 -13 22 -11 16 17 245 404 250 422 5 21 -2 28 -68 64 -40
22 -80 41 -90 41 -10 0 -38 -37 -74 -97z"/>
<path d="M1834 2563 c-31 -54 -88 -151 -126 -215 -37 -64 -68 -121 -68 -126 0
-5 14 -39 31 -76 50 -107 55 -224 13 -318 -9 -20 -14 -47 -11 -60 6 -23 215
-306 266 -361 25 -28 26 -29 7 -43 -11 -8 -22 -14 -26 -14 -3 0 -70 83 -149
185 -79 102 -148 185 -152 185 -23 0 1 -40 126 -209 74 -100 135 -186 135
-191 0 -14 -82 -71 -96 -68 -15 4 -228 288 -255 341 -11 20 -24 37 -30 37 -31
0 -7 -46 112 -215 103 -146 130 -191 122 -203 -19 -31 -32 -22 -81 50 -28 40
-93 131 -146 203 l-96 129 -92 1 c-82 0 -100 3 -148 28 -75 39 -133 88 -167
142 l-28 44 -263 1 c-298 0 -282 5 -262 -82 65 -275 347 -546 657 -630 107
-29 326 -31 427 -4 172 46 307 124 431 250 346 349 355 879 21 1234 -23 24
-53 52 -68 63 l-27 20 -57 -98z m124 -20 c62 -66 127 -168 161 -255 74 -184
81 -401 21 -582 -31 -90 -133 -276 -156 -283 -5 -1 -38 39 -74 89 -36 50 -96
129 -133 176 l-69 85 16 36 c52 122 45 258 -20 369 l-26 43 39 67 c118 203
179 302 187 302 5 0 30 -21 54 -47z m-966 -833 c86 -106 196 -160 327 -160
l70 0 43 -57 c23 -32 79 -109 125 -171 46 -62 86 -119 90 -127 7 -19 -25 -31
-147 -57 -142 -30 -301 -22 -430 21 -149 50 -230 101 -351 221 -95 95 -111
115 -158 210 -28 58 -54 122 -58 143 l-6 37 224 -1 224 0 47 -59z"/>
<path d="M3636 2430 c-249 -31 -520 -139 -716 -284 -96 -70 -215 -179 -232
-210 -6 -12 14 2 46 31 173 159 444 292 732 359 111 26 133 28 329 28 241 0
305 -12 454 -86 255 -126 328 -369 195 -645 -75 -157 -258 -362 -467 -524
-431 -336 -1022 -616 -1970 -935 -109 -36 -196 -68 -194 -70 2 -3 95 18 206
46 1091 274 1993 749 2362 1243 33 45 84 129 112 186 l52 104 3 173 3 173 -31
67 c-75 156 -261 283 -485 329 -95 19 -302 27 -399 15z"/>
<path d="M3981 2290 c46 -24 110 -96 140 -158 18 -37 23 -64 24 -127 0 -71 -4
-87 -34 -147 -137 -274 -548 -537 -1135 -727 -391 -127 -732 -194 -1671 -331
-445 -65 -691 -108 -930 -161 -161 -36 -357 -90 -351 -96 2 -3 78 7 168 21 90
14 406 62 703 106 1232 185 1691 277 2150 433 450 154 816 366 985 571 161
196 181 395 53 546 -28 34 -109 90 -127 90 -6 -1 5 -10 25 -20z"/>
<path d="M1250 2286 c-147 -31 -245 -159 -244 -317 0 -118 68 -223 184 -285
55 -30 220 -27 278 4 194 103 241 337 101 496 -50 57 -107 91 -177 105 -63 13
-70 13 -142 -3z m198 -32 c147 -60 216 -269 139 -419 -30 -59 -65 -94 -127
-126 -62 -32 -193 -34 -260 -3 -182 84 -225 357 -78 490 86 77 222 101 326 58z"/>
<path d="M1265 2231 c-118 -29 -195 -128 -195 -251 0 -104 69 -213 155 -246
70 -26 179 -17 241 21 99 62 140 192 99 315 -40 122 -171 192 -300 161z m138
-44 c168 -71 193 -294 45 -394 -62 -41 -112 -49 -181 -29 -111 32 -183 150
-157 254 33 135 176 217 293 169z"/>
<path d="M3460 2275 c-248 -47 -511 -194 -666 -372 -94 -108 -95 -113 -3 -29
254 230 564 356 847 344 140 -6 149 -23 14 -24 -269 -3 -569 -143 -769 -357
-89 -95 -99 -124 -16 -46 76 71 203 159 298 207 290 144 669 150 740 12 22
-42 19 -113 -6 -163 -34 -66 -135 -163 -247 -238 -119 -80 -155 -92 -60 -20
184 140 276 312 211 399 -89 119 -386 94 -637 -55 -108 -64 -250 -205 -295
-293 l-34 -65 67 72 c165 179 366 277 566 278 109 0 161 -18 186 -67 31 -59
-15 -156 -120 -256 -174 -165 -498 -299 -996 -411 -283 -63 -558 -107 -1150
-181 -427 -53 -654 -86 -860 -125 -162 -31 -389 -85 -394 -94 -3 -4 90 5 207
20 250 33 695 87 1072 129 999 113 1597 255 2069 492 249 124 459 293 519 418
91 189 28 341 -171 412 -75 27 -265 33 -372 13z"/>
<path d="M4258 2174 c70 -72 94 -128 100 -229 5 -93 -17 -173 -74 -266 -19
-31 -34 -67 -34 -80 0 -22 1 -22 34 10 76 74 122 202 113 321 -8 116 -51 202
-136 266 -64 49 -65 42 -3 -22z"/>
<path d="M426 2048 c-8 -30 -8 -117 0 -157 l7 -31 236 0 c130 0 246 3 259 6
22 6 29 34 16 68 -8 21 -24 11 -24 -15 0 -19 -7 -19 -227 -17 l-228 3 -3 39
c-2 22 -1 50 2 63 l6 23 221 0 c212 0 221 -1 226 -20 3 -11 9 -20 13 -20 11 0
23 57 15 70 -4 6 -97 10 -259 10 l-254 0 -6 -22z"/>
<path d="M4135 1478 c-137 -111 -231 -208 -200 -208 42 0 255 187 255 224 0
23 -10 20 -55 -16z"/>
<path d="M3685 1145 c-118 -66 -198 -122 -190 -135 16 -26 260 103 319 169 19
21 19 21 -5 21 -13 0 -69 -25 -124 -55z"/>
<path d="M2090 1155 c-11 -13 -8 -15 13 -15 34 0 58 10 51 21 -8 14 -50 10
-64 -6z"/>
<path d="M3204 906 c-132 -52 -225 -98 -243 -120 -12 -14 -10 -16 17 -16 79 0
382 135 382 171 0 18 -47 8 -156 -35z"/>
<path d="M2635 699 c-207 -58 -385 -127 -385 -149 0 -6 16 -10 36 -10 99 0
479 130 492 168 6 18 -61 14 -143 -9z"/>
<path d="M1839 475 c-69 -13 -213 -44 -320 -70 -107 -25 -335 -75 -507 -110
-173 -35 -316 -66 -319 -69 -13 -13 306 -5 397 9 204 33 643 135 830 194 71
22 114 47 105 62 -9 13 -44 10 -186 -16z"/>
</g>
</svg>
