<?xml version="1.0" standalone="no"?>
<!DOCTYPE svg PUBLIC "-//W3C//DTD SVG 20010904//EN"
 "http://www.w3.org/TR/2001/REC-SVG-20010904/DTD/svg10.dtd">
<svg version="1.0" xmlns="http://www.w3.org/2000/svg"
 width="567.000000pt" height="531.000000pt" viewBox="0 0 567.000000 531.000000"
 preserveAspectRatio="xMidYMid meet">

<g transform="translate(0.000000,531.000000) scale(0.100000,-0.100000)"
fill="#000000" stroke="none">
<path d="M1930 5149 c-585 -189 -703 -231 -729 -263 -10 -12 -32 -16 -85 -16
-166 0 -269 -70 -225 -153 10 -18 9 -23 -7 -32 -10 -5 -36 -27 -58 -48 l-39
-37 5 -73 c6 -86 42 -164 97 -206 33 -25 79 -32 156 -22 11 2 38 -4 60 -13 50
-19 157 -20 193 -2 15 8 36 23 46 35 21 23 75 28 94 9 25 -25 14 -53 -28 -72
-58 -25 -72 -59 -81 -198 l-7 -117 -58 -66 c-32 -36 -66 -65 -75 -65 -20 0
-56 44 -90 110 -70 137 -118 187 -166 176 -34 -9 -93 -68 -93 -94 0 -28 131
-288 170 -337 45 -57 84 -78 223 -115 102 -28 126 -38 149 -64 15 -17 28 -36
28 -43 0 -6 -25 -23 -55 -37 -35 -16 -62 -36 -72 -54 -12 -20 -45 -44 -102
-73 -51 -27 -91 -54 -100 -70 -9 -15 -33 -41 -53 -59 -47 -40 -62 -91 -55
-183 9 -105 69 -212 149 -264 36 -24 52 -28 112 -28 l71 0 83 -120 c45 -66 91
-133 101 -148 12 -18 20 -55 24 -105 7 -109 48 -226 108 -316 51 -77 89 -112
172 -160 45 -26 47 -29 47 -72 0 -78 17 -96 132 -144 57 -24 123 -52 148 -62
257 -112 662 -268 696 -268 35 0 124 37 364 150 250 117 273 129 329 172 25
18 90 56 145 83 114 57 130 76 122 145 -13 103 -16 94 40 102 28 4 93 28 145
53 51 25 100 45 110 45 9 0 47 -9 83 -20 l66 -21 103 45 c135 59 244 111 262
126 11 9 15 33 15 79 0 53 5 73 23 101 13 19 36 67 51 105 14 39 38 93 52 120
37 73 34 111 -20 265 -84 236 -174 402 -290 538 -31 37 -51 72 -62 110 -8 31
-20 71 -25 88 -5 16 -45 70 -88 119 l-79 88 20 27 c28 39 39 96 32 172 -5 47
-3 72 5 82 7 8 41 24 77 36 70 24 94 48 94 96 0 35 20 53 82 73 58 19 88 53
88 101 0 23 -5 50 -10 61 -8 15 -6 25 11 48 18 24 21 38 15 71 -15 97 -82 187
-171 231 -76 37 -104 36 -210 -7 -82 -32 -113 -34 -177 -8 -41 16 -53 17 -107
6 l-60 -13 -49 34 c-67 46 -130 62 -242 62 -104 0 -150 -16 -199 -69 -18 -19
-35 -26 -61 -26 -20 0 -59 -7 -86 -15 -84 -25 -102 -21 -154 35 -33 35 -54 50
-72 50 -19 0 -36 12 -58 40 -18 22 -40 40 -51 40 -22 0 -79 -27 -79 -37 0 -4
12 -20 27 -35 31 -33 26 -40 -37 -58 -86 -25 -119 -10 -242 108 l-81 78 -6 75
c-7 82 -20 108 -64 134 -23 14 -42 16 -86 12 -37 -4 -74 -1 -106 8 -73 23
-107 18 -275 -36z m241 5 c57 -17 99 -39 99 -53 0 -13 -54 -33 -464 -173 -360
-123 -442 -158 -371 -158 23 0 26 -2 15 -15 -28 -34 76 -10 219 50 61 26 66
26 98 11 18 -9 33 -20 33 -24 0 -5 24 -25 54 -46 38 -26 72 -63 116 -128 l62
-92 -22 -18 c-30 -24 -85 -23 -126 3 -26 16 -43 19 -77 14 -39 -6 -46 -4 -70
22 -14 15 -41 50 -59 77 -33 49 -83 95 -93 84 -3 -3 9 -22 26 -44 18 -21 45
-67 61 -101 50 -105 31 -146 -72 -160 -47 -7 -54 3 -60 86 -6 72 -30 100 -30
34 0 -51 -28 -103 -68 -126 -54 -32 -66 -19 -59 68 5 68 8 77 36 101 19 16 31
35 31 50 0 65 -94 178 -182 219 l-50 23 32 17 c41 21 249 95 410 146 69 22
134 44 145 49 18 9 293 98 306 99 3 1 30 -6 60 -15z m232 -45 c19 -20 27 -40
27 -64 0 -19 -4 -35 -10 -35 -5 0 -10 6 -10 13 0 18 -59 87 -75 87 -16 0 -37
25 -28 34 14 14 69 -6 96 -35z m67 -214 c132 -133 162 -167 150 -175 -8 -6
-45 -20 -82 -32 l-67 -22 -39 27 c-22 14 -74 59 -115 99 -42 40 -94 89 -116
109 -59 51 -54 64 29 90 43 13 70 26 70 35 0 8 -1 14 -2 14 -11 -1 -133 -42
-148 -50 -12 -7 -20 -21 -20 -37 0 -20 27 -52 123 -144 67 -64 119 -120 114
-125 -4 -4 -68 54 -143 130 -112 114 -133 140 -123 152 6 8 9 17 5 21 -5 6
155 66 189 71 6 1 84 -72 175 -163z m-500 51 c0 -2 -26 -16 -57 -31 -69 -32
-93 -52 -93 -77 0 -20 -15 -24 -26 -6 -4 6 1 17 10 23 9 7 15 18 14 25 -2 6
25 22 60 35 35 12 66 26 69 29 7 7 23 8 23 2z m210 -128 c141 -141 178 -187
159 -199 -35 -22 -143 -51 -171 -45 -41 8 -105 56 -165 124 -28 32 -71 69 -97
82 -47 26 -66 54 -48 72 20 20 147 67 183 67 33 1 46 -9 139 -101z m729 13
c12 -16 21 -36 21 -45 0 -24 -25 -19 -38 7 -7 12 -19 32 -28 45 -16 21 -15 22
4 22 11 0 30 -13 41 -29z m-1666 -30 c26 -13 64 -39 84 -58 36 -33 36 -34 17
-52 -10 -11 -33 -22 -51 -26 -27 -5 -37 0 -84 41 -63 56 -144 94 -201 94 -25
0 -38 4 -32 9 16 16 47 20 134 17 65 -1 97 -7 133 -25z m317 -6 c-30 -13 -64
-24 -75 -24 -22 0 91 48 115 48 8 0 -10 -11 -40 -24z m2150 -6 c56 -25 117
-66 124 -85 3 -8 -5 -21 -18 -29 -22 -14 -30 -13 -102 11 -62 22 -105 29 -199
33 -102 5 -120 9 -123 23 -4 21 35 47 96 65 60 16 162 8 222 -18z m-2675 -28
c-6 -4 -25 -13 -42 -19 -26 -9 -33 -8 -33 2 0 20 11 26 49 26 20 0 31 -4 26
-9z m1981 -12 c28 -31 9 -48 -82 -79 -43 -15 -169 -60 -279 -100 -447 -162
-611 -220 -621 -220 -6 0 -14 19 -17 43 -2 23 -6 48 -8 56 -4 15 23 25 490
191 96 34 183 66 193 71 14 7 16 6 12 -6 -4 -10 0 -15 13 -15 28 0 125 38 134
52 7 10 11 10 21 0 17 -17 38 -15 78 7 44 25 43 25 66 0z m1369 -8 c44 -20 98
-75 122 -127 21 -42 10 -57 -60 -80 -80 -25 -147 -56 -147 -65 0 -16 30 -9
118 27 48 20 93 39 100 42 10 3 13 -3 10 -24 -3 -27 -11 -32 -102 -66 -109
-41 -126 -52 -109 -69 8 -8 33 -2 92 21 44 18 87 30 94 27 20 -8 28 -57 14
-87 -7 -13 -28 -34 -49 -45 -49 -27 -206 -81 -214 -73 -3 4 2 27 11 52 41 108
-3 263 -101 356 -29 27 -58 50 -64 50 -29 0 8 21 78 44 129 42 150 43 207 17z
m-2385 -88 c28 -35 57 -63 63 -63 8 0 8 -3 -1 -12 -15 -15 -28 -3 -92 83 -61
84 -43 79 30 -8z m2020 67 c22 -13 6 -22 -48 -28 -54 -5 -105 13 -81 29 19 12
110 11 129 -1z m-2920 -25 c64 -47 75 -101 24 -123 -41 -19 -58 -14 -99 29
-22 22 -53 47 -69 56 -31 16 -28 23 19 47 44 23 86 20 125 -9z m62 6 c45 -35
90 -137 96 -212 6 -82 0 -108 -34 -148 -19 -23 -34 -31 -59 -31 -45 0 -54 18
-16 31 17 6 40 26 51 44 42 68 15 224 -52 301 -33 37 -25 45 14 15z m2202 -2
c26 -11 44 -24 41 -30 -9 -14 -27 -11 -70 11 -22 11 -45 20 -52 20 -7 0 -13 5
-13 10 0 16 44 11 94 -11z m304 -35 c38 -15 35 -27 -9 -38 -18 -4 -34 0 -50
13 -13 10 -37 26 -54 35 l-30 17 54 -6 c30 -3 70 -13 89 -21z m-351 -9 c47
-31 -8 -66 -101 -64 -65 1 -96 10 -110 31 -14 22 1 37 46 49 44 11 137 2 165
-16z m-1917 1 c0 -21 -25 -37 -68 -43 -54 -7 -62 12 -15 36 45 24 83 27 83 7z
m1010 4 c0 -5 -7 -10 -15 -10 -8 0 -15 5 -15 10 0 6 7 10 15 10 8 0 15 -4 15
-10z m1691 -33 c50 -32 100 -100 120 -162 18 -58 16 -173 -4 -212 -17 -32 -53
-60 -64 -49 -3 3 0 27 8 53 38 139 -24 297 -147 369 -33 20 -42 29 -32 35 20
13 68 0 119 -34z m-1067 11 c10 -41 6 -55 -19 -66 -30 -14 -65 -16 -65 -4 0 5
11 14 25 20 23 11 35 32 18 32 -5 0 -43 -11 -86 -25 -127 -41 -131 -27 -7 19
63 24 118 44 121 45 4 0 9 -9 13 -21z m492 6 c21 -9 53 -32 71 -52 32 -34 34
-35 71 -24 51 15 84 15 106 -1 19 -14 -37 -37 -359 -153 -66 -24 -219 -80
-340 -124 -296 -110 -401 -149 -455 -167 -54 -19 -68 -29 -55 -42 6 -6 95 22
240 75 127 47 255 94 285 104 30 10 98 34 150 54 52 19 201 73 330 120 137 51
244 84 256 81 28 -6 114 -99 114 -123 0 -28 -11 -34 -165 -91 -77 -29 -178
-67 -225 -86 -47 -19 -132 -52 -190 -74 -58 -21 -201 -75 -319 -120 -135 -51
-229 -81 -253 -81 -44 0 -137 -36 -139 -54 -1 -6 0 -27 1 -47 1 -28 -4 -41
-21 -53 -13 -9 -26 -12 -31 -8 -4 4 -12 38 -18 77 -20 127 -50 161 -205 235
-92 44 -330 134 -402 151 -50 12 -83 30 -40 22 16 -3 40 5 66 21 58 37 110 34
224 -10 155 -61 138 -62 347 12 102 36 214 76 250 90 36 13 146 53 245 89 99
36 185 71 190 78 6 8 34 20 63 27 47 13 54 12 69 -3 11 -11 14 -20 8 -26 -6
-5 -107 -43 -225 -84 -118 -42 -314 -112 -435 -157 -121 -45 -242 -89 -269
-99 -54 -18 -73 -41 -34 -41 13 0 61 14 108 31 47 17 162 58 255 91 94 32 188
66 210 74 22 9 103 37 180 63 242 84 315 113 309 122 -3 5 -13 9 -23 9 -26 0
-71 38 -71 60 0 23 36 50 66 50 12 0 39 -7 60 -16z m-2551 -40 c94 -72 115
-245 33 -273 -81 -28 -179 84 -181 206 -2 67 20 93 75 93 27 0 50 -8 73 -26z
m2984 11 c64 -22 96 -50 134 -113 52 -86 54 -97 17 -130 -20 -19 -29 -34 -24
-45 4 -11 1 -17 -9 -17 -11 0 -19 17 -27 53 -6 29 -27 76 -48 107 -31 46 -49
61 -112 92 l-75 37 35 15 c44 19 58 19 109 1z m-789 -55 c19 -12 18 -12 -68
-45 -75 -28 -102 -25 -88 10 13 34 119 58 156 35z m-1060 -10 c0 -5 -12 -10
-26 -10 -14 0 -23 4 -19 10 3 6 15 10 26 10 10 0 19 -4 19 -10z m-926 -16 c3
-9 6 -34 6 -56 0 -34 -7 -47 -39 -79 -21 -22 -43 -39 -47 -39 -5 0 -9 37 -9
82 0 81 0 82 30 94 40 17 52 17 59 -2z m166 -54 c0 -74 -17 -123 -45 -134 -30
-11 -34 -6 -23 24 5 17 8 64 6 105 l-3 75 32 0 33 0 0 -70z m1371 54 c-17 -13
-22 -23 -19 -46 4 -24 0 -32 -23 -44 -31 -16 -67 -18 -87 -6 -9 6 0 13 28 21
22 6 40 16 40 21 0 16 -45 11 -93 -9 -25 -11 -67 -22 -94 -26 -41 -5 -31 1 62
35 61 23 126 47 145 55 49 19 70 19 41 -1z m240 -4 c54 -30 -14 -70 -119 -70
-49 0 -73 4 -82 15 -16 19 -6 43 22 55 32 12 155 12 179 0z m957 -6 c21 -15
47 -62 39 -70 -2 -2 -23 17 -47 41 -44 44 -38 62 8 29z m-2108 -44 c0 -12 -45
-24 -59 -15 -22 13 -10 25 24 25 19 0 35 -4 35 -10z m108 -21 c60 -30 77 -54
47 -65 -26 -10 -67 6 -102 41 -31 31 -37 55 -14 55 4 0 36 -14 69 -31z m-73
-44 c19 -18 25 -35 25 -69 0 -39 -3 -46 -23 -51 -13 -4 -48 0 -78 7 -44 12
-55 19 -57 37 -6 39 7 70 36 85 40 22 70 19 97 -9z m958 5 c9 -8 -103 -51
-115 -44 -18 11 -6 36 25 49 30 13 73 11 90 -5z m-429 -10 c-11 -11 -153 -68
-191 -77 -13 -3 -23 -1 -23 4 0 5 44 26 98 46 101 37 134 45 116 27z m230 -13
c11 -8 15 -19 11 -30 -8 -19 -91 -47 -142 -47 -35 0 -93 24 -93 39 0 12 33 38
55 44 43 10 152 7 169 -6z m-994 -33 c49 6 61 4 58 -6 -3 -7 -16 -16 -29 -20
-149 -44 -141 -43 -155 -23 -15 20 -19 55 -6 55 4 0 13 -9 20 -20 15 -25 37
-27 27 -2 -4 9 -9 26 -12 37 -4 18 -2 17 15 -4 18 -22 24 -23 82 -17z m2390
11 c0 -14 -2 -25 -4 -25 -2 0 -6 11 -8 25 -3 14 -1 25 3 25 5 0 9 -11 9 -25z
m-2030 -28 c0 -20 -30 -57 -46 -57 -14 0 -19 26 -8 54 7 19 54 22 54 3z m360
-10 c-25 -22 -64 -35 -85 -27 -18 7 -16 9 15 23 19 8 46 16 60 16 21 1 22 -1
10 -12z m1816 -13 c-3 -9 -6 -24 -6 -35 0 -10 -4 -19 -10 -19 -5 0 -10 16 -10
35 0 25 4 35 16 35 11 0 14 -5 10 -16z m-198 -5 c-2 -6 -19 -17 -38 -25 -48
-18 -554 -208 -665 -249 -101 -38 -203 -77 -412 -158 -78 -30 -144 -52 -147
-49 -24 23 29 62 85 62 29 0 134 38 709 257 174 66 399 151 440 166 24 9 32 8
28 -4z m-1533 -27 c-3 -3 -11 0 -18 7 -9 10 -8 11 6 5 10 -3 15 -9 12 -12z
m-494 -80 c63 -22 173 -61 245 -86 155 -53 255 -97 302 -132 29 -22 32 -29 20
-40 -7 -8 -40 -19 -73 -25 -33 -6 -63 -13 -67 -16 -5 -2 0 -19 9 -36 13 -24
18 -67 21 -179 l4 -148 -22 0 c-48 0 -60 25 -60 129 -1 224 11 213 -400 353
-321 109 -416 131 -461 108 -32 -18 -22 -33 19 -28 35 5 74 -5 327 -82 97 -29
263 -87 354 -123 117 -46 124 -56 129 -207 3 -66 2 -120 -1 -120 -9 0 -371
121 -376 126 -2 2 7 13 20 24 29 25 46 23 191 -24 65 -20 110 -30 114 -24 8
13 15 10 -126 58 -69 24 -131 48 -137 53 -15 11 -17 43 -5 51 5 3 66 -15 137
-39 123 -43 158 -48 135 -20 -13 16 -72 38 -180 66 -74 20 -92 29 -136 71 -53
50 -74 56 -129 37 -27 -10 -50 -5 -190 39 -90 29 -164 47 -169 42 -14 -14 34
-37 149 -70 152 -44 190 -65 166 -94 -9 -11 -39 -4 -157 36 -80 26 -150 46
-155 42 -22 -13 17 -33 157 -79 133 -45 148 -52 170 -84 13 -20 20 -37 15 -39
-13 -4 -372 117 -389 131 -17 14 -6 259 13 297 18 34 93 74 184 98 l75 19 81
-22 c45 -13 133 -41 196 -63z m2144 53 c27 -26 31 -54 14 -86 -13 -25 -29 -16
-29 17 0 31 -4 30 -100 -7 -76 -29 -101 -52 -85 -79 7 -12 -30 -50 -50 -50
-10 0 -15 10 -15 29 0 17 -3 32 -8 35 -7 4 -223 -80 -249 -97 -8 -5 -10 -19
-7 -37 6 -26 2 -31 -35 -49 -22 -12 -43 -21 -46 -21 -3 0 -5 16 -5 35 0 49 -2
49 -168 -25 -96 -43 -97 -44 -100 -82 -2 -27 -9 -37 -25 -42 -40 -11 -47 -7
-47 25 0 26 -3 30 -17 24 -10 -4 -40 -15 -68 -26 -112 -44 -140 -62 -143 -94
-3 -30 -25 -55 -49 -55 -8 0 -11 9 -7 29 4 18 -1 43 -16 71 -23 46 -21 52 25
68 17 6 163 61 325 122 162 62 349 132 415 157 159 59 375 142 400 153 35 15
65 11 90 -15z m-1680 5 c18 -8 18 -9 -5 -9 -14 0 -32 4 -40 9 -12 8 -12 10 5
9 11 0 29 -4 40 -9z m1965 -90 c0 -29 -44 -53 -108 -56 -53 -3 -55 -2 -30 10
14 8 43 19 65 26 21 7 42 19 46 26 12 20 27 17 27 -6z m-320 -21 c0 -13 -52
-35 -105 -44 -37 -7 -39 -6 -24 10 29 30 129 57 129 34z m99 -49 c2 -14 -2
-69 -9 -123 -12 -91 -14 -98 -34 -95 -20 3 -21 8 -21 109 0 76 4 111 14 123
19 23 45 16 50 -14z m-99 -16 c0 -8 -4 -12 -10 -9 -5 3 -10 10 -10 16 0 5 5 9
10 9 6 0 10 -7 10 -16z m-56 -10 c27 -10 21 -80 -9 -110 l-24 -24 -53 20 c-29
11 -61 20 -70 20 -38 0 -336 -112 -743 -280 -198 -82 -311 -120 -350 -120 -18
1 -17 3 8 25 18 16 39 24 60 23 17 0 57 11 87 25 30 14 84 37 120 50 36 14
124 48 195 76 72 28 247 96 390 151 143 55 285 111 315 125 30 13 56 24 57 24
1 1 8 -2 17 -5z m-210 -29 c0 -10 -156 -73 -181 -74 -7 -1 -13 5 -13 12 0 8
35 28 78 44 77 31 118 37 116 18z m-2799 -3 c12 -7 77 -105 139 -208 32 -52
36 -67 31 -98 -5 -26 -3 -43 10 -62 9 -14 15 -28 12 -30 -14 -14 -62 51 -123
166 -38 72 -79 143 -90 157 -19 24 -24 26 -38 14 -13 -11 -17 -11 -23 4 -4 13
2 25 23 42 31 24 42 27 59 15z m3214 -115 c1 -43 -2 -58 -11 -55 -14 5 -24
120 -12 147 10 24 22 -22 23 -92z m-249 -34 c124 -67 316 -257 360 -356 21
-47 72 -249 91 -362 15 -87 7 -299 -13 -322 -7 -9 -92 -55 -188 -101 -131 -64
-188 -86 -227 -90 -57 -5 -151 4 -171 17 -7 4 -28 49 -46 100 -40 109 -88 191
-138 236 -20 18 -34 35 -32 38 10 10 159 -24 215 -49 70 -32 104 -68 119 -127
18 -69 19 -72 32 -59 17 17 -8 116 -39 153 -48 57 -191 109 -343 124 -134 14
-340 71 -340 94 0 4 45 28 100 53 77 36 104 53 119 79 27 44 26 61 -4 97 -43
52 -149 81 -412 113 -101 12 -183 26 -183 29 0 7 134 64 345 145 66 26 165 64
220 86 55 22 170 66 255 98 174 66 167 66 280 4z m-2940 -69 c81 -142 128
-206 160 -215 14 -4 18 -7 9 -8 -62 -4 -125 62 -199 208 -55 111 -63 131 -47
131 6 0 41 -52 77 -116z m860 96 c28 -15 60 -74 60 -111 0 -91 -91 -108 -126
-24 -37 89 2 169 66 135z m1570 -5 c0 -9 -8 -18 -17 -22 -10 -3 -51 -19 -91
-34 -41 -16 -78 -29 -83 -29 -17 0 -9 32 9 37 9 2 49 17 87 33 81 33 95 36 95
15z m-895 -15 c3 -5 11 -48 17 -95 10 -83 10 -87 -15 -139 -18 -35 -39 -61
-62 -75 -19 -11 -35 -19 -35 -18 -9 66 -27 293 -24 297 5 5 93 38 106 39 4 1
9 -3 13 -9z m-1217 -49 c-7 -12 -16 -21 -21 -21 -8 0 -2 14 16 38 16 20 20 6
5 -17z m2851 -32 c-11 -22 -14 -23 -41 -8 l-21 11 24 19 c30 22 55 8 38 -22z
m-2691 -23 c121 -46 465 -160 727 -241 181 -57 195 -64 195 -109 0 -61 -15
-63 -162 -16 -159 50 -577 192 -738 250 -150 54 -160 61 -160 109 0 33 6 51
17 51 2 0 56 -20 121 -44z m1612 -11 c0 -21 -152 -86 -167 -72 -11 12 12 28
84 58 81 33 83 33 83 14z m-1777 -54 c35 -70 36 -117 3 -132 -29 -14 -40 -8
-95 53 -34 38 -42 53 -37 72 6 26 62 67 86 63 8 -1 27 -26 43 -56z m1471 34
c26 -39 20 -63 -23 -93 -22 -15 -52 -48 -66 -74 -29 -53 -57 -66 -107 -52 -47
14 -57 36 -33 81 30 55 62 91 119 129 60 40 88 43 110 9z m-1302 -116 c178
-66 512 -179 708 -239 113 -34 210 -68 217 -74 13 -12 3 -119 -17 -170 -19
-50 -109 -68 -141 -30 -9 12 -7 31 10 92 35 123 35 122 18 122 -11 0 -22 -26
-38 -86 -28 -107 -44 -119 -115 -83 -45 23 -50 29 -82 112 -20 50 -40 87 -48
87 -18 0 -18 0 5 -57 41 -107 36 -135 -20 -110 -19 9 -63 28 -99 42 -120 49
-125 54 -161 163 -32 97 -44 122 -60 122 -14 0 -10 -37 13 -116 11 -41 18 -77
15 -80 -3 -4 -24 1 -47 10 -22 9 -54 16 -72 16 -45 0 -118 77 -148 155 -22 58
-39 155 -27 155 4 0 44 -14 89 -31z m-131 -92 c-13 -13 -26 -3 -16 12 3 6 11
8 17 5 6 -4 6 -10 -1 -17z m1186 -27 c45 -24 107 -26 157 -5 33 14 37 14 43
-1 3 -9 -3 -24 -16 -37 -19 -19 -33 -22 -106 -22 -47 0 -85 -2 -85 -5 0 -3 -7
-61 -15 -129 -11 -91 -12 -128 -4 -138 7 -8 33 -13 66 -13 52 0 55 1 68 33 7
17 16 68 20 112 7 81 29 135 46 118 6 -6 5 -47 -1 -109 -21 -190 -35 -210
-146 -201 -91 7 -118 28 -122 93 -3 47 25 300 34 316 8 12 21 10 61 -12z m478
-30 c83 -11 184 -26 225 -34 211 -41 238 -112 72 -191 -100 -48 -178 -66 -312
-71 -117 -5 -128 -4 -170 18 -40 20 -45 27 -48 62 -5 64 -1 67 68 39 67 -26
210 -44 210 -26 0 13 -34 23 -81 23 -55 0 -129 26 -160 56 -25 24 -29 35 -29
84 0 31 3 60 7 64 5 4 21 5 38 1 16 -3 98 -15 180 -25z m-372 -100 c-6 -78
-27 -186 -37 -192 -6 -4 -20 -8 -31 -8 -42 0 -45 10 -34 115 5 55 11 105 13
111 3 7 20 8 48 5 38 -6 43 -9 41 -31z m-1147 -41 c16 -17 16 -22 4 -30 -8 -5
-31 -7 -51 -4 -21 4 -54 0 -80 -9 -52 -19 -59 -19 -59 -6 0 6 21 24 47 40 57
36 111 40 139 9z m158 -49 c43 -16 116 -91 146 -150 79 -157 79 -300 0 -300
-17 0 -20 7 -20 50 0 50 -40 183 -69 230 -37 60 -78 104 -123 132 -26 16 -46
34 -42 39 7 12 76 12 108 -1z m1092 -68 c-13 -12 -18 9 -10 45 l8 38 4 -39 c2
-21 1 -41 -2 -44z m1751 -41 c102 -155 209 -396 201 -453 -5 -39 -42 -35 -62
5 -9 19 -16 39 -16 44 0 12 -43 118 -77 193 -14 30 -41 89 -60 130 -38 82 -73
170 -73 184 0 18 32 -19 87 -103z m-2987 68 c75 -34 111 -79 74 -93 -31 -12
-54 -6 -86 23 -18 15 -52 38 -76 50 -23 12 -40 26 -37 31 10 17 78 11 125 -11z
m-125 -36 c48 -24 95 -63 95 -78 0 -9 -16 -16 -45 -20 -40 -7 -49 -4 -105 34
-34 22 -77 43 -96 47 -40 7 -35 18 16 33 41 12 92 6 135 -16z m428 21 c16 -16
176 -74 204 -74 18 0 49 -9 70 -19 21 -11 56 -23 78 -27 22 -3 50 -16 63 -28
19 -16 36 -21 83 -20 32 0 59 -1 59 -3 0 -13 -22 -43 -31 -43 -6 0 -38 11 -72
24 -119 46 -379 136 -393 136 -42 0 1 -23 129 -68 236 -84 281 -103 298 -121
16 -17 14 -19 -35 -35 -28 -10 -87 -36 -132 -58 l-81 -41 -61 28 c-33 15 -68
35 -76 44 -8 9 -21 48 -30 87 -14 71 -41 133 -77 186 -11 14 -19 29 -19 32 0
8 15 8 23 0z m1055 -88 c18 -10 34 -43 68 -142 44 -131 53 -178 33 -189 -5 -4
-42 -4 -80 0 -82 8 -87 15 -113 138 -16 81 -34 125 -60 146 -12 10 -13 18 -4
37 10 22 17 24 72 24 34 -1 72 -7 84 -14z m-1556 -29 c55 -42 144 -148 221
-262 33 -49 84 -122 114 -162 57 -74 64 -106 26 -111 -16 -2 -29 9 -54 45 -18
26 -70 99 -116 161 -46 63 -104 150 -129 195 -25 45 -64 101 -87 125 -49 50
-36 55 25 9z m1829 8 c194 -50 315 -109 399 -194 119 -121 179 -280 187 -502
5 -134 5 -137 -16 -144 -37 -11 -51 11 -51 80 0 181 -77 383 -190 496 -66 66
-129 101 -237 129 -141 37 -171 50 -203 86 -29 34 -37 54 -23 67 11 11 37 8
134 -18z m-1474 -24 c29 -43 39 -80 26 -100 -12 -20 -63 -33 -79 -20 -12 10
-58 128 -52 134 9 9 54 24 68 22 8 -1 25 -18 37 -36z m1296 12 c22 -43 30 -73
18 -73 -8 0 -51 81 -51 96 0 15 22 -1 33 -23z m-1753 -5 c87 -44 157 -184 148
-295 -6 -64 -29 -101 -82 -127 -90 -44 -191 38 -247 201 -24 70 -24 80 2 148
34 92 94 116 179 73z m1265 -12 c18 -13 18 -17 4 -61 -17 -55 -40 -76 -66 -59
-26 16 -27 37 -4 89 21 47 35 54 66 31z m-959 -4 c31 -20 61 -117 43 -138 -24
-30 -56 -16 -93 40 -20 30 -36 62 -36 71 0 24 61 44 86 27z m1119 -22 c11 -18
-5 -66 -33 -97 -31 -36 -71 -48 -96 -30 -16 12 -15 16 8 69 25 57 34 63 93 67
12 0 25 -4 28 -9z m75 -29 c5 -11 10 -30 10 -43 -1 -20 -3 -19 -20 12 -11 19
-19 38 -20 43 0 15 20 6 30 -12z m811 -19 c87 -56 169 -177 214 -319 22 -67
37 -80 115 -92 120 -20 136 -16 281 55 74 37 151 72 172 80 66 23 39 -4 -40
-42 -43 -20 -105 -49 -138 -65 -134 -64 -180 -71 -306 -42 l-75 16 -23 66
c-36 103 -96 222 -134 267 -20 22 -56 51 -81 65 -25 13 -46 27 -46 31 0 14 15
9 61 -20z m987 -70 c18 -40 32 -76 32 -81 0 -5 -18 0 -40 11 l-40 20 0 71 c0
39 4 67 8 62 5 -6 23 -43 40 -83z m-1468 43 c40 -21 50 -43 50 -116 0 -70 -28
-129 -61 -129 -21 0 -24 16 -9 54 7 19 3 46 -15 107 -30 104 -25 115 35 84z
m-384 -42 c-9 -37 -50 -73 -76 -66 -25 7 -26 20 0 28 11 3 29 19 40 36 27 37
44 38 36 2z m-923 -26 c10 -64 -1 -85 -54 -102 -27 -9 -53 -14 -59 -10 -5 3
-10 30 -10 60 l0 53 43 15 c64 23 74 21 80 -16z m737 -23 c83 -42 197 -187
207 -265 7 -47 -4 -59 -54 -59 -29 0 -35 6 -72 74 -54 99 -149 195 -224 226
-61 25 -70 37 -34 44 12 3 31 7 42 9 33 7 87 -4 135 -29z m278 -11 c15 -68 4
-79 -40 -43 -37 30 -40 46 -15 78 22 28 45 13 55 -35z m532 26 c5 -7 -3 -37
-20 -73 -16 -34 -40 -92 -54 -131 -34 -92 -59 -131 -98 -155 -45 -27 -121 -27
-148 0 -37 37 -18 70 40 70 62 0 99 54 135 199 9 35 24 75 32 88 15 22 22 25
61 20 25 -3 48 -11 52 -18z m-1706 -25 c4 -9 4 -19 2 -21 -8 -8 -26 8 -26 23
0 19 16 18 24 -2z m396 -39 c28 -14 50 -29 50 -33 0 -5 -7 -30 -16 -55 -11
-34 -25 -52 -46 -63 -16 -9 -31 -14 -32 -12 -7 9 -26 100 -26 127 0 29 8 61
16 61 3 0 27 -11 54 -25z m-560 -39 c0 -31 -5 -58 -12 -64 -10 -8 -12 3 -10
54 4 77 22 86 22 10z m908 25 c55 -28 93 -62 140 -125 31 -41 28 -53 -22 -77
l-45 -21 -65 51 c-89 68 -157 84 -228 56 -15 -6 -18 -1 -18 35 0 34 6 48 34
76 31 31 40 34 90 34 43 0 71 -7 114 -29z m1122 -11 c0 -12 0 -12 -39 1 -30
11 -37 19 -25 32 9 8 64 -21 64 -33z m-746 -23 c31 -31 57 -70 66 -97 14 -41
19 -46 60 -58 60 -17 74 -26 78 -46 3 -13 -5 -16 -35 -16 -91 0 -127 24 -152
102 -7 21 -32 63 -56 94 -42 54 -48 74 -22 74 6 0 34 -24 61 -53z m1813 29
c25 -22 28 -31 31 -103 8 -171 -47 -310 -98 -248 -10 12 -8 27 11 77 30 81 34
215 7 245 -21 23 -23 39 -5 46 21 9 25 8 54 -17z m-1117 -31 c16 -8 34 -24 40
-34 13 -25 13 -197 0 -222 -12 -22 -59 -26 -78 -7 -13 13 -18 259 -5 271 9 9
10 9 43 -8z m-1920 -31 c0 -7 -5 -16 -11 -20 -17 -10 -32 12 -24 36 5 17 10
19 21 9 8 -6 14 -17 14 -25z m390 27 c0 -5 -9 -13 -20 -16 -27 -9 -25 -22 5
-29 16 -4 27 -16 31 -33 6 -22 1 -32 -25 -55 -18 -16 -40 -28 -48 -26 -42 8
-41 141 0 158 30 12 57 12 57 1z m-127 -15 c6 -16 -2 -56 -12 -56 -12 0 -51
31 -51 41 0 5 10 14 23 19 31 12 34 12 40 -4z m1103 5 c16 -5 50 -12 76 -16
44 -6 47 -8 50 -38 2 -23 10 -35 31 -45 40 -19 24 -32 -40 -32 -112 0 -173 38
-173 106 0 37 8 40 56 25z m1764 -85 c-14 -14 -17 -7 -24 49 l-6 50 20 -44
c14 -30 17 -48 10 -55z m-1085 19 c38 -60 44 -104 19 -129 -19 -19 -36 -20
-52 -4 -11 11 -18 188 -7 188 2 0 20 -25 40 -55z m-205 22 c0 -7 -5 -18 -12
-25 -15 -15 -38 -16 -38 -1 0 12 29 38 43 39 4 0 7 -6 7 -13z m1129 -99 c-6
-34 -14 -69 -20 -80 -11 -20 -31 -25 -24 -5 2 6 12 55 21 107 14 79 19 90 25
67 4 -16 3 -56 -2 -89z m-2389 92 c0 -5 -4 -10 -10 -10 -5 0 -10 5 -10 10 0 6
5 10 10 10 6 0 10 -4 10 -10z m-480 -105 c52 -77 56 -85 42 -85 -14 0 -123
151 -116 161 9 15 21 2 74 -76z m2785 -35 c-28 -220 -76 -285 -255 -351 -46
-16 -93 -28 -105 -25 -12 3 -47 28 -78 55 -31 27 -67 53 -79 56 -13 4 -33 17
-45 28 -21 18 -23 30 -23 108 0 50 4 91 10 94 6 4 51 1 100 -6 110 -16 124
-12 325 87 82 40 153 70 157 66 4 -4 1 -54 -7 -112z m-2895 81 c0 -7 -43 -31
-55 -31 -2 0 -9 9 -15 20 -9 17 -7 22 12 29 23 9 58 -2 58 -18z m264 0 c10
-11 16 -25 14 -32 -2 -7 -14 1 -27 19 -24 35 -15 44 13 13z m524 0 c87 -45
188 -183 226 -310 18 -62 19 -71 8 -71 -5 0 -16 26 -26 58 -42 131 -128 252
-225 314 -51 32 -39 38 17 9z m-61 -25 c65 -32 149 -125 196 -213 49 -94 49
-116 -3 -137 -73 -29 -81 -25 -124 64 -55 115 -145 206 -245 247 -78 32 -78
36 -7 59 55 18 123 11 183 -20z m-730 -117 c47 -72 83 -132 80 -135 -8 -8
-187 248 -187 267 0 22 25 -9 107 -132z m1843 86 c0 -49 -2 -55 -21 -55 -36 0
-59 19 -59 50 0 35 23 60 56 60 22 0 24 -3 24 -55z m1427 38 c6 -17 -49 -54
-75 -51 -28 3 -48 28 -40 49 7 17 110 18 115 2z m-3198 -65 c66 -76 66 -76 47
-115 -9 -19 -20 -31 -25 -28 -12 7 -96 134 -104 157 -16 45 39 36 82 -14z
m1001 1 c0 -11 -51 -11 -69 0 -10 6 -6 11 15 18 29 10 54 1 54 -18z m-511 -25
c119 -57 228 -212 241 -341 8 -87 40 -153 75 -153 28 0 31 -8 12 -34 -9 -13
-20 -16 -40 -11 -37 10 -36 9 -125 237 -60 157 -133 243 -256 303 l-71 36 54
-5 c30 -3 80 -17 110 -32z m2591 -13 c0 -14 -21 -68 -47 -119 -34 -69 -57
-100 -87 -122 -53 -40 -71 -39 -23 1 43 35 71 84 63 106 -4 8 6 43 20 77 14
33 30 72 35 85 8 19 12 21 24 11 8 -7 15 -24 15 -39z m-1020 15 c0 -16 -18
-31 -27 -22 -8 8 5 36 17 36 5 0 10 -6 10 -14z m1106 -1 c14 -35 -74 -231
-123 -276 -46 -43 -115 -89 -124 -83 -22 13 -6 46 36 76 56 40 98 103 130 198
14 40 30 79 36 86 15 18 38 18 45 -1z m-1890 -60 c60 -81 86 -85 95 -15 6 53
22 33 17 -22 -3 -31 -9 -36 -103 -85 -57 -31 -107 -51 -117 -47 -11 3 -19 20
-23 52 -3 26 -8 61 -11 79 -4 27 -1 34 23 47 15 8 36 24 45 35 10 12 20 21 22
21 2 0 26 -29 52 -65z m-899 31 c140 -66 263 -278 263 -455 0 -66 -26 -156
-58 -205 -60 -90 -188 -112 -302 -50 -103 56 -213 212 -241 344 -14 64 -7 166
16 231 20 57 76 125 119 144 52 22 143 18 203 -9z m639 -1 c24 -15 44 -97 44
-180 0 -46 -3 -53 -27 -64 -29 -13 -43 -3 -43 31 0 24 -35 111 -71 181 l-31
58 54 -7 c29 -3 62 -12 74 -19z m106 -13 c-20 -16 -22 -23 -16 -82 8 -97 12
-110 39 -122 35 -16 31 -28 -9 -28 l-33 0 -8 88 c-13 153 -13 155 15 162 34 9
39 2 12 -18z m540 -72 c-4 -102 -3 -101 -99 -119 -57 -11 -67 2 -65 86 1 69 9
83 48 83 11 0 41 11 65 24 24 13 46 22 49 21 3 -2 4 -44 2 -95z m-328 74 c4
-9 4 -19 1 -22 -6 -6 -35 18 -35 29 0 16 28 10 34 -7z m451 -15 c48 -21 73
-22 188 -3 60 10 68 -3 61 -105 -7 -115 -11 -131 -32 -131 -10 0 -40 23 -67
51 -58 58 -81 72 -170 100 l-65 20 0 38 c0 59 11 63 85 30z m-330 -113 l3 -86
-52 -14 c-62 -17 -148 -41 -236 -67 -66 -19 -88 -15 -77 15 4 11 19 16 46 16
32 0 44 5 59 28 13 17 48 38 93 57 93 38 139 80 139 126 0 24 3 30 11 22 7 -7
13 -50 14 -97z m1456 42 c22 -12 39 -29 39 -39 0 -17 -63 -79 -80 -79 -22 0
-60 25 -60 39 1 26 38 101 51 101 6 0 29 -10 50 -22z m-821 -83 c0 -37 -4 -65
-10 -65 -6 0 -10 28 -10 65 0 37 4 65 10 65 6 0 10 -28 10 -65z m-237 -31 c69
-38 135 -130 121 -168 -6 -16 -74 -46 -103 -46 -13 0 -27 16 -42 48 -13 26
-50 73 -82 104 l-60 57 34 15 c50 21 81 19 132 -10z m412 -14 c3 -5 -1 -10 -9
-10 -9 0 -16 5 -16 10 0 6 4 10 9 10 6 0 13 -4 16 -10z m560 -14 c18 -13 18
-14 -3 -25 -29 -16 -49 -14 -56 6 -12 30 27 43 59 19z m-1153 -25 c133 -84
208 -324 137 -440 -24 -40 -128 -94 -117 -61 2 5 23 20 48 32 50 25 70 65 28
56 -12 -3 -31 -9 -40 -13 -16 -6 -18 0 -18 69 l0 76 40 16 c44 18 48 25 25 44
-12 10 -21 10 -46 0 -29 -12 -33 -12 -50 11 -10 13 -19 28 -19 33 0 21 -85
118 -126 143 -24 15 -44 31 -44 34 0 10 56 27 96 28 28 1 53 -7 86 -28z m-634
-13 c7 -7 12 -25 12 -40 0 -21 -7 -32 -26 -40 -22 -11 -28 -10 -40 7 -19 26
-18 41 6 65 23 23 31 25 48 8z m1300 -8 c55 -34 53 -47 -19 -112 -55 -49 -64
-55 -67 -37 -2 11 6 36 17 55 23 39 28 69 16 97 -10 23 11 22 53 -3z m-853
-23 c78 -40 184 -182 157 -209 -13 -13 -188 -78 -210 -78 -12 0 -27 20 -46 57
-40 81 -81 130 -138 162 -59 34 -55 39 62 73 88 26 118 25 175 -5z m1262 17
c4 -13 -66 -38 -93 -32 -15 3 -11 8 21 26 42 22 66 25 72 6z m-661 -24 c21
-45 27 -133 10 -155 -31 -42 -73 26 -75 121 -1 64 41 86 65 34z m122 18 c15
-15 16 -110 1 -160 -7 -28 -17 -40 -35 -44 -14 -4 -28 -4 -31 0 -8 8 -14 196
-7 208 8 12 58 10 72 -4z m676 -36 c11 -23 24 -42 30 -42 11 0 35 15 89 53 31
22 47 15 47 -21 0 -25 -11 -32 -148 -95 -81 -37 -154 -67 -162 -67 -13 0 -60
105 -60 133 0 10 161 87 175 83 6 -1 19 -21 29 -44z m-1949 -7 c11 -19 17 -36
15 -39 -3 -2 -34 -16 -69 -30 -45 -18 -68 -23 -76 -16 -17 14 -39 69 -32 77 9
9 109 42 128 43 9 0 24 -16 34 -35z m1515 -15 c0 -5 -4 -10 -9 -10 -6 0 -13 5
-16 10 -3 6 1 10 9 10 9 0 16 -4 16 -10z m143 4 c4 -4 -10 -15 -31 -25 -47
-23 -215 -79 -221 -73 -3 2 5 17 16 32 17 23 28 27 74 28 33 0 72 9 99 22 50
24 54 25 63 16z m52 -14 c3 -5 1 -10 -4 -10 -6 0 -11 5 -11 10 0 6 2 10 4 10
3 0 8 -4 11 -10z m-1445 -30 c184 -94 253 -447 105 -544 -33 -22 -52 -21 -33
2 41 49 59 165 38 253 -30 129 -122 252 -207 277 -24 7 -43 17 -43 22 0 18 99
11 140 -10z m1415 -10 c8 -13 -12 -48 -44 -76 -21 -19 -219 -114 -237 -114 -2
0 0 9 6 19 5 11 10 30 10 43 0 40 26 65 82 78 29 7 73 23 98 36 49 25 75 30
85 14z m-1530 -39 c46 -20 105 -82 133 -138 11 -21 27 -69 37 -108 46 -186
-49 -329 -202 -300 -53 9 -128 89 -178 189 -33 66 -40 91 -43 150 -3 62 0 78
25 126 35 69 79 100 142 100 25 0 64 -9 86 -19z m1595 -16 c0 -19 -20 -29 -32
-17 -8 8 -7 16 2 26 14 17 30 12 30 -9z m-682 3 c17 -17 15 -80 -4 -107 -13
-18 -90 -61 -110 -61 -2 0 -4 33 -4 74 l0 73 38 16 c47 19 65 20 80 5z m299
-60 c-4 -34 -14 -51 -48 -80 -40 -37 -83 -51 -74 -25 3 6 7 27 9 46 2 19 10
37 17 42 8 4 30 19 49 32 48 35 53 33 47 -15z m-1597 10 c-1 -13 -7 -36 -15
-53 -11 -25 -14 -27 -14 -9 -1 34 11 84 20 84 5 0 9 -10 9 -22z m2004 -19 c19
-17 -4 -22 -49 -9 -64 18 -70 34 -9 26 27 -4 53 -12 58 -17z m-572 -16 c50
-45 -24 -152 -81 -116 -9 6 -17 27 -19 50 -3 34 1 44 24 62 32 25 51 26 76 4z
m-1374 -2 c19 -12 -16 -78 -63 -119 -47 -42 -78 -43 -36 -1 17 16 38 52 48 80
18 49 26 56 51 40z m917 -71 c4 -22 2 -55 -4 -73 -10 -29 -23 -39 -89 -70 -42
-20 -94 -42 -114 -51 l-38 -15 3 81 c4 89 1 84 77 117 96 40 145 58 152 55 3
-2 9 -22 13 -44z m257 -52 c-24 -11 -46 -18 -48 -15 -6 6 58 37 76 36 8 0 -5
-10 -28 -21z m-1138 -10 c13 -43 15 -98 4 -98 -23 1 -91 66 -83 79 15 26 73
39 79 19z m1424 -76 l3 -53 -56 -24 c-67 -30 -68 -30 -60 -6 3 10 -1 37 -8 59
l-14 41 46 20 c71 32 85 26 89 -37z m-192 30 c50 -40 59 -113 21 -158 -31 -35
-47 -25 -40 26 5 34 1 44 -26 75 -42 48 -41 75 3 75 12 0 31 -8 42 -18z m-106
-17 c0 -8 9 -24 20 -35 27 -27 25 -36 -7 -48 -60 -20 -253 -116 -253 -125 0
-17 55 1 162 52 58 28 110 51 116 51 8 0 12 -19 12 -49 0 -58 -7 -65 -130
-126 -104 -52 -460 -215 -471 -215 -12 0 -22 65 -15 94 5 19 36 38 151 95 80
39 145 75 145 81 0 5 -2 10 -5 10 -6 0 -169 -73 -235 -105 -45 -22 -64 -26
-105 -22 -61 6 -137 35 -132 51 2 6 28 14 58 18 31 4 104 29 174 61 273 123
412 187 450 206 48 24 65 26 65 6z m-1261 -30 c165 -64 192 -78 218 -112 14
-18 23 -36 20 -39 -4 -5 -167 58 -342 131 l-40 17 30 13 c41 18 40 18 114 -10z
m971 -24 c0 -14 -21 -26 -128 -71 -98 -41 -130 -47 -98 -21 15 12 203 99 219
100 4 1 7 -3 7 -8z m-1134 -65 c199 -72 382 -141 511 -192 37 -15 96 -30 131
-34 34 -5 74 -15 87 -24 22 -15 25 -24 25 -77 0 -54 -2 -61 -17 -56 -85 27
-839 338 -853 353 -26 26 -37 74 -17 74 8 0 68 -20 133 -44z m829 -326 c0 -63
-3 -75 -17 -78 -16 -3 -18 6 -18 78 0 72 2 81 18 78 14 -3 17 -15 17 -78z"/>
<path d="M2604 4654 c-18 -14 -18 -15 6 -8 31 8 50 24 29 24 -8 0 -24 -7 -35
-16z"/>
<path d="M2510 4623 c-19 -9 -107 -38 -194 -65 -88 -27 -187 -63 -220 -79 -82
-39 -34 -29 124 26 69 24 167 58 217 76 51 17 101 38 110 45 24 18 7 16 -37
-3z"/>
<path d="M874 4565 c-28 -42 -1 -132 52 -174 33 -26 56 -27 77 -3 35 38 8 136
-49 181 -35 28 -60 26 -80 -4z m94 -65 c26 -52 28 -78 6 -87 -27 -10 -66 39
-71 92 -6 45 -5 47 18 43 17 -2 31 -16 47 -48z"/>
<path d="M3845 3726 c-157 -61 -288 -121 -293 -135 -5 -15 127 -151 148 -151
22 0 130 38 272 95 118 48 158 70 158 84 0 5 -30 41 -66 80 -43 47 -73 71 -87
71 -12 -1 -71 -20 -132 -44z m184 -43 c23 -25 40 -51 38 -56 -3 -9 -15 -15
-207 -92 -161 -66 -156 -66 -214 -6 l-49 50 34 15 c19 9 84 36 144 61 61 25
124 52 140 59 51 25 70 19 114 -31z"/>
<path d="M4222 3150 c-65 -33 -86 -49 -112 -88 -40 -60 -59 -128 -62 -222 -4
-96 15 -105 23 -10 16 170 47 224 170 290 76 41 96 59 71 68 -5 1 -45 -16 -90
-38z"/>
<path d="M1086 3038 c-56 -80 50 -270 135 -243 49 16 57 118 15 189 -14 25
-36 52 -48 61 -33 23 -84 19 -102 -7z m124 -77 c17 -32 12 -99 -7 -110 -25
-13 -67 11 -83 48 -16 40 -10 52 31 67 46 17 47 17 59 -5z"/>
<path d="M4036 2564 c-9 -25 -7 -234 3 -234 13 0 21 54 21 151 0 83 -10 119
-24 83z"/>
<path d="M1755 2493 c-39 -10 -73 -43 -95 -95 -19 -44 -22 -65 -18 -133 5 -91
33 -157 96 -227 107 -119 225 -130 300 -29 73 100 41 286 -71 408 -63 69 -135
95 -212 76z m141 -63 c59 -37 122 -142 138 -233 11 -62 -11 -146 -49 -184 -28
-28 -40 -33 -79 -33 -59 0 -91 17 -145 75 -40 43 -91 138 -91 169 0 7 9 23 20
36 11 13 20 31 20 40 0 36 33 111 57 130 33 26 87 26 129 0z"/>
<path d="M1790 2332 c-32 -26 -39 -113 -13 -162 26 -49 91 -92 143 -94 35 -1
46 4 66 29 28 35 40 99 25 138 -17 43 -31 33 -24 -18 6 -45 -10 -105 -29 -105
-5 0 -4 10 3 21 16 31 6 120 -17 151 -42 57 -111 74 -154 40z m84 -22 c66 -25
86 -134 33 -174 -26 -19 -30 -19 -54 -6 -38 22 -64 61 -70 107 -4 33 -1 45 16
62 23 23 38 26 75 11z"/>
<path d="M2463 2015 c-33 -23 -48 -88 -34 -151 36 -158 188 -235 237 -119 49
118 -37 285 -146 285 -20 0 -45 -7 -57 -15z m80 -22 c4 -3 -7 -15 -23 -25 -62
-37 -64 -107 -6 -174 29 -33 39 -39 75 -39 44 0 50 -5 26 -25 -39 -33 -123 32
-149 115 -15 45 -16 61 -6 90 15 46 62 79 83 58z m51 -84 c30 -35 35 -89 10
-113 -21 -22 -37 -20 -62 7 -33 35 -45 76 -31 109 16 38 50 37 83 -3z"/>
<path d="M1232 1084 c-29 -14 -63 -40 -76 -58 -60 -79 -91 -300 -67 -479 28
-206 100 -287 256 -287 147 0 218 72 250 256 39 226 -5 478 -96 546 -75 56
-182 65 -267 22z m159 -91 c11 -12 15 -72 17 -262 4 -297 0 -345 -34 -367 -20
-14 -29 -14 -54 -4 -39 16 -42 39 -38 356 2 203 6 265 17 277 17 22 75 22 92
0z"/>
<path d="M3315 1091 c-56 -25 -111 -90 -130 -153 -26 -89 -37 -238 -26 -357
22 -231 94 -321 257 -321 177 1 250 106 261 376 11 264 -44 417 -164 458 -62
21 -148 20 -198 -3z m152 -111 c10 -19 13 -93 11 -308 l-3 -284 -24 -19 c-25
-21 -54 -18 -81 7 -22 21 -22 592 -1 618 22 26 82 18 98 -14z"/>
<path d="M4325 1091 c-116 -53 -157 -163 -157 -416 0 -210 35 -320 120 -379
37 -26 54 -31 118 -34 139 -7 214 46 256 180 20 64 23 94 23 243 0 150 -3 179
-23 245 -39 123 -116 180 -243 180 -31 0 -71 -8 -94 -19z m152 -111 c16 -32
18 -542 2 -588 -12 -35 -42 -46 -79 -29 l-25 12 -3 298 c-1 199 1 304 9 318
16 30 79 23 96 -11z"/>
<path d="M270 685 l0 -415 95 0 95 0 2 192 3 193 35 17 c19 9 55 20 80 23 78
11 80 13 80 56 0 24 -5 42 -13 45 -14 5 -135 -17 -170 -31 -16 -7 -17 1 -15
116 l3 124 65 1 65 1 3 47 3 46 -165 0 -166 0 0 -415z"/>
<path d="M737 1093 c-4 -3 -7 -190 -7 -415 l0 -408 170 0 170 0 0 45 0 44 -77
3 -78 3 -3 368 -2 367 -83 0 c-46 0 -87 -3 -90 -7z"/>
<path d="M1657 1093 c-2 -5 4 -71 13 -148 10 -77 30 -241 44 -365 15 -124 29
-244 32 -267 l6 -43 79 0 78 0 11 43 c6 23 15 56 20 72 5 17 14 49 20 73 12
46 24 48 34 5 4 -16 19 -65 33 -110 l27 -83 53 0 c62 0 55 -14 78 170 43 341
65 522 71 588 l7 73 -49 -3 -49 -3 -6 -50 c-4 -27 -15 -139 -25 -247 -9 -109
-20 -198 -23 -198 -3 0 -28 70 -56 155 -27 85 -53 155 -57 155 -4 0 -9 -8 -12
-17 -2 -10 -21 -79 -42 -153 -21 -74 -41 -139 -45 -144 -8 -10 -11 7 -39 279
-12 110 -23 206 -25 213 -5 13 -171 18 -178 5z"/>
<path d="M2520 685 l0 -415 50 0 50 0 0 288 c0 317 -2 310 58 152 46 -119 64
-160 71 -160 7 0 8 3 69 155 21 55 43 109 48 120 6 12 10 -89 12 -267 l2 -288
90 0 90 0 0 415 0 415 -89 0 -89 0 -15 -32 c-8 -18 -27 -63 -42 -100 -15 -38
-30 -68 -34 -68 -4 0 -25 45 -46 100 l-39 100 -93 0 -93 0 0 -415z"/>
<path d="M3704 1086 c-3 -8 -4 -31 -2 -52 l3 -39 63 -3 62 -3 0 -359 0 -360
90 0 90 0 0 360 c0 281 3 360 13 361 6 0 35 1 62 2 l50 2 3 53 3 52 -216 0
c-175 0 -217 -3 -221 -14z"/>
<path d="M4780 686 l0 -416 90 0 89 0 3 128 c3 125 3 127 27 130 13 2 27 0 32
-5 4 -4 15 -53 24 -108 9 -55 18 -110 21 -123 4 -21 8 -22 119 -22 108 0 115
1 115 20 0 11 -5 20 -10 20 -6 0 -37 57 -70 126 l-60 126 45 44 c41 42 75 114
75 161 0 8 5 11 10 8 6 -4 10 10 10 34 0 23 -4 41 -8 41 -5 0 -16 27 -25 60
-21 72 -69 131 -136 162 -39 18 -69 22 -198 26 l-153 4 0 -416z m271 295 c23
-19 24 -24 24 -166 0 -142 -1 -147 -24 -166 -13 -10 -38 -19 -57 -19 l-34 0 0
178 c0 98 3 182 7 185 13 14 61 7 84 -12z"/>
</g>
</svg>
