<?xml version="1.0" standalone="no"?>
<!DOCTYPE svg PUBLIC "-//W3C//DTD SVG 20010904//EN"
 "http://www.w3.org/TR/2001/REC-SVG-20010904/DTD/svg10.dtd">
<svg version="1.0" xmlns="http://www.w3.org/2000/svg"
 width="908.000000pt" height="328.000000pt" viewBox="0 0 908.000000 328.000000"
 preserveAspectRatio="xMidYMid meet">

<g transform="translate(0.000000,328.000000) scale(0.100000,-0.100000)"
fill="#000000" stroke="none">
<path d="M0 2980 l0 -60 4480 0 4480 0 0 60 0 60 -4480 0 -4480 0 0 -60z"/>
<path d="M7565 2890 c-2 -3 32 -30 75 -59 44 -29 99 -70 121 -90 l42 -37 -111
-90 c-61 -49 -111 -92 -111 -96 -1 -5 36 -8 82 -8 l82 0 130 88 c71 48 131 92
133 99 4 14 -71 70 -182 137 -73 44 -84 48 -168 55 -49 4 -91 4 -93 1z"/>
<path d="M55 2846 c28 -25 73 -64 102 -88 29 -24 51 -49 50 -57 -1 -8 -48 -48
-105 -89 -115 -82 -131 -112 -64 -112 61 0 144 34 249 101 54 34 108 68 121
76 12 7 22 17 22 22 0 14 -174 130 -238 158 -34 15 -83 27 -122 30 l-65 5 50
-46z"/>
<path d="M490 2887 c0 -3 50 -45 110 -92 61 -47 110 -89 110 -93 -1 -4 -50
-47 -110 -96 -61 -48 -110 -92 -110 -97 0 -17 85 -9 150 14 36 12 106 49 155
81 50 32 100 65 112 72 14 9 20 20 17 29 -8 21 -187 137 -244 159 -44 17 -190
35 -190 23z"/>
<path d="M1000 2886 c0 -3 47 -44 105 -92 58 -48 105 -90 105 -95 0 -12 -132
-118 -185 -149 -25 -14 -42 -29 -38 -33 3 -4 38 -7 76 -7 61 0 78 5 147 41 91
47 212 128 218 146 2 7 -57 52 -135 103 l-138 90 -77 0 c-43 0 -78 -2 -78 -4z"/>
<path d="M1522 2882 c-8 -6 19 -33 88 -87 55 -43 103 -81 105 -86 3 -4 -44
-49 -105 -99 -60 -51 -110 -94 -110 -96 0 -2 38 -4 84 -4 l84 0 131 87 c74 50
131 95 131 103 0 19 -200 155 -256 175 -43 16 -132 19 -152 7z"/>
<path d="M2017 2879 c7 -7 49 -42 94 -78 129 -104 129 -94 5 -197 -58 -47
-106 -88 -106 -90 0 -2 38 -4 84 -4 l84 0 108 80 c148 108 162 120 145 127 -7
3 -48 30 -90 59 -128 90 -166 107 -256 112 -65 3 -78 2 -68 -9z"/>
<path d="M2612 2804 c65 -49 118 -92 118 -95 0 -3 -49 -46 -109 -95 -61 -49
-110 -95 -110 -103 -1 -11 12 -13 58 -8 73 6 120 27 266 118 l116 72 -23 25
c-26 28 -140 104 -210 139 -35 17 -72 26 -135 30 l-88 6 117 -89z"/>
<path d="M3010 2887 c0 -2 52 -44 115 -93 63 -48 115 -91 115 -94 0 -6 -79
-67 -182 -140 -52 -36 -57 -45 -32 -54 57 -22 171 17 304 103 105 69 137 99
112 108 -7 3 -53 34 -103 70 -124 89 -157 103 -251 103 -43 0 -78 -2 -78 -3z"/>
<path d="M3520 2881 c0 -3 50 -44 110 -90 61 -45 110 -85 110 -87 0 -8 -52
-52 -137 -116 -46 -34 -83 -66 -83 -70 0 -4 38 -8 85 -8 97 0 91 -3 248 115
100 74 121 95 97 95 -6 0 -64 37 -131 83 l-120 82 -90 2 c-49 0 -89 -2 -89 -6z"/>
<path d="M4020 2882 c0 -4 52 -46 116 -92 l116 -85 -43 -38 c-24 -20 -74 -61
-111 -90 -37 -28 -67 -55 -68 -59 0 -5 37 -8 83 -8 l83 0 95 61 c118 77 169
117 169 133 0 36 -216 159 -309 176 -64 12 -131 13 -131 2z"/>
<path d="M4540 2880 c0 -5 6 -13 14 -17 8 -4 55 -42 105 -83 l90 -75 -30 -31
c-17 -18 -66 -56 -110 -85 -79 -54 -93 -72 -63 -83 56 -21 156 11 276 90 54
35 112 71 129 79 l31 17 -26 26 c-14 15 -51 43 -83 61 -32 19 -86 51 -121 73
-58 35 -69 38 -138 38 -41 0 -74 -4 -74 -10z"/>
<path d="M5030 2883 c0 -5 17 -17 37 -27 67 -32 193 -138 193 -163 0 -7 -10
-18 -22 -24 -37 -20 -198 -143 -198 -151 0 -5 40 -8 88 -8 l89 0 129 88 c71
49 130 95 131 103 3 17 -180 134 -250 161 -55 21 -197 36 -197 21z"/>
<path d="M5550 2888 c0 -2 50 -44 110 -93 74 -59 107 -92 101 -99 -5 -6 -55
-47 -110 -91 -55 -44 -100 -83 -100 -87 -1 -5 36 -8 82 -8 l83 0 132 88 c85
55 131 92 130 102 -3 16 -102 87 -203 147 -52 31 -71 36 -142 41 -46 2 -83 3
-83 0z"/>
<path d="M6110 2835 c41 -31 96 -73 122 -93 26 -19 45 -39 42 -44 -6 -10 -191
-150 -217 -165 -17 -9 -17 -11 -2 -23 22 -18 113 -7 178 23 28 13 93 51 144
84 51 34 98 63 105 66 23 8 -5 39 -88 95 -135 92 -167 105 -269 110 l-90 5 75
-58z"/>
<path d="M6570 2883 c0 -5 36 -34 80 -67 44 -32 91 -73 105 -91 l25 -33 -28
-24 c-16 -13 -65 -50 -110 -83 -45 -32 -82 -62 -82 -65 0 -3 34 -6 75 -8 91
-3 118 8 217 81 40 30 92 65 116 77 l43 23 -26 26 c-36 39 -226 151 -272 162
-47 11 -143 12 -143 2z"/>
<path d="M7080 2884 c0 -5 47 -47 105 -93 58 -46 105 -87 105 -92 0 -4 -49
-44 -110 -89 -60 -46 -110 -87 -110 -91 0 -5 35 -9 77 -9 72 0 81 3 147 42
109 63 216 139 216 152 -1 13 -182 129 -248 158 -49 21 -182 37 -182 22z"/>
<path d="M8080 2882 c0 -6 52 -48 115 -93 99 -70 113 -84 103 -97 -17 -21
-209 -162 -220 -162 -5 0 -6 -4 -3 -10 3 -5 45 -10 93 -10 l87 0 129 88 c71
48 131 93 133 99 5 13 -124 107 -211 154 -48 26 -73 32 -142 37 -57 3 -84 1
-84 -6z"/>
<path d="M8600 2877 c8 -8 42 -36 75 -62 89 -71 125 -103 125 -113 0 -13 -59
-65 -137 -122 -40 -28 -73 -56 -73 -61 0 -5 35 -9 78 -9 l78 0 107 66 107 66
0 56 0 57 -66 44 c-98 63 -149 83 -234 88 -66 5 -73 3 -60 -10z"/>
<path d="M0 2435 l0 -45 4480 0 4480 0 0 45 0 45 -4480 0 -4480 0 0 -45z"/>
<path d="M0 2211 l0 -61 4480 0 4480 0 0 56 0 57 -3822 -4 c-2103 -2 -4119 0
-4480 5 l-658 8 0 -61z"/>
<path d="M0 1685 l0 -55 4480 0 4480 0 0 55 0 55 -4480 0 -4480 0 0 -55z"/>
<path d="M0 1118 l0 -58 68 -1 c37 -1 348 1 692 3 344 1 2329 2 4413 1 l3787
-2 0 61 0 61 -4480 -4 -4480 -4 0 -57z"/>
<path d="M0 890 l0 -50 4480 0 4480 0 0 50 0 50 -4480 0 -4480 0 0 -50z"/>
<path d="M2905 806 c-61 -15 -54 -11 -187 -100 -59 -39 -107 -78 -108 -86 0
-8 24 -28 53 -44 28 -16 95 -55 147 -87 87 -52 103 -58 173 -64 42 -4 77 -3
77 1 0 5 -52 47 -115 94 -65 49 -114 92 -115 102 0 10 41 48 100 93 55 43 100
81 100 85 0 8 -37 20 -60 19 -8 0 -38 -6 -65 -13z"/>
<path d="M274 779 c-119 -75 -213 -150 -207 -164 3 -8 10 -15 15 -15 15 0 175
-97 234 -142 49 -37 53 -38 133 -38 46 0 81 4 79 9 -1 5 -52 49 -113 97 -60
48 -113 92 -116 97 -4 5 32 43 80 84 47 41 93 81 101 89 12 12 2 14 -71 14
-78 0 -89 -3 -135 -31z"/>
<path d="M713 722 c-73 -48 -133 -92 -133 -98 0 -7 30 -30 68 -53 37 -23 96
-60 132 -83 36 -23 85 -47 109 -55 45 -13 133 -18 144 -7 3 3 -47 49 -111 101
-64 52 -118 98 -119 101 -1 4 26 29 60 55 34 26 82 66 107 87 l45 39 -85 0
-85 0 -132 -87z"/>
<path d="M1305 782 c-110 -75 -215 -156 -213 -164 2 -4 26 -23 55 -41 237
-149 256 -157 351 -157 55 0 66 10 30 27 -18 8 -160 125 -211 173 -5 4 39 47
97 95 58 47 106 88 106 91 0 2 -39 4 -87 4 -79 0 -92 -3 -128 -28z"/>
<path d="M1768 754 c-104 -71 -170 -124 -166 -135 2 -5 68 -51 147 -104 l144
-95 79 0 c43 0 78 3 78 8 0 4 -52 48 -115 97 l-116 90 103 97 103 97 -87 1
-87 0 -83 -56z"/>
<path d="M2329 786 c-38 -20 -114 -70 -211 -138 -26 -18 -29 -48 -4 -48 6 0
36 -16 66 -36 118 -79 186 -117 230 -129 66 -20 140 -23 140 -7 0 4 -52 45
-115 92 -63 47 -114 92 -115 101 0 9 35 44 78 78 98 77 122 98 122 105 0 3
-33 6 -74 6 -58 0 -82 -5 -117 -24z"/>
<path d="M3329 782 c-90 -53 -209 -146 -209 -162 0 -4 30 -27 68 -50 37 -24
94 -61 126 -82 95 -62 110 -68 186 -68 38 0 70 3 70 8 0 4 -52 45 -115 92 -86
63 -114 90 -112 105 1 11 38 48 86 86 131 105 129 99 31 99 -75 0 -91 -4 -131
-28z"/>
<path d="M3753 722 c-73 -48 -133 -93 -133 -99 0 -7 19 -22 42 -34 24 -12 79
-46 123 -77 44 -30 99 -63 123 -73 51 -22 166 -27 160 -7 -3 7 -54 52 -114
101 -60 48 -110 91 -111 95 -1 4 30 33 70 65 40 32 88 71 107 87 l35 29 -85 0
-85 0 -132 -87z"/>
<path d="M4299 749 c-46 -33 -103 -73 -126 -87 -48 -31 -53 -46 -20 -63 12 -6
67 -41 121 -77 136 -89 168 -102 249 -102 69 0 84 9 43 28 -25 11 -216 172
-216 181 1 3 24 25 53 49 29 24 75 63 102 87 l50 45 -86 0 -87 0 -83 -61z"/>
<path d="M4850 783 c-59 -35 -207 -141 -215 -153 -3 -5 7 -17 22 -26 15 -9 84
-54 153 -100 l125 -84 78 0 c42 0 77 3 77 8 0 4 -54 47 -120 97 -66 49 -120
92 -120 96 0 9 48 50 133 113 42 32 77 62 77 67 0 5 -37 9 -82 9 -72 0 -89 -4
-128 -27z"/>
<path d="M5344 770 c-33 -23 -91 -62 -131 -88 -40 -26 -72 -50 -72 -54 -1 -8
102 -79 229 -160 72 -47 76 -48 153 -48 43 0 77 4 75 9 -1 5 -52 48 -113 96
-60 48 -114 91 -119 95 -9 9 21 38 132 124 39 32 72 59 72 62 0 2 -38 4 -84 4
-82 0 -86 -1 -142 -40z"/>
<path d="M5785 725 c-65 -47 -122 -85 -126 -85 -22 0 -6 -31 24 -46 17 -9 65
-39 106 -67 130 -88 175 -107 247 -107 35 0 64 4 64 10 0 8 -77 74 -184 157
-22 17 -41 36 -41 41 0 5 38 41 85 81 47 40 92 79 100 87 12 12 2 14 -71 14
l-86 0 -118 -85z"/>
<path d="M6415 797 c-53 -21 -98 -48 -183 -111 l-83 -61 25 -20 c15 -12 52
-36 84 -54 31 -19 90 -55 129 -82 71 -48 75 -49 148 -49 41 0 75 3 75 8 0 4
-52 50 -115 102 -63 52 -115 97 -115 100 0 3 45 41 99 85 55 44 100 83 100 88
1 11 -131 7 -164 -6z"/>
<path d="M6875 780 c-71 -42 -208 -143 -212 -156 -3 -10 67 -58 240 -163 63
-38 72 -41 143 -41 42 0 74 4 72 9 -1 4 -50 46 -108 91 -58 46 -109 86 -114
91 -7 7 22 37 159 162 l40 36 -85 1 c-76 0 -90 -3 -135 -30z"/>
<path d="M7390 783 c-68 -40 -220 -153 -220 -164 0 -4 15 -16 33 -25 17 -9 65
-39 106 -67 130 -88 175 -107 247 -107 35 0 64 4 64 9 0 6 -52 51 -115 102
-63 50 -115 95 -115 98 0 3 47 44 105 90 58 46 105 86 105 88 0 1 -37 3 -82 3
-72 0 -89 -4 -128 -27z"/>
<path d="M7829 737 c-58 -39 -118 -82 -134 -93 l-28 -21 29 -18 c32 -20 175
-115 237 -157 35 -25 49 -28 119 -28 43 0 78 3 78 8 -1 4 -52 50 -115 102 -63
52 -115 97 -115 100 0 3 43 41 95 85 52 44 95 83 95 87 0 5 -35 8 -77 8 l-78
0 -106 -73z"/>
<path d="M8403 783 c-22 -16 -79 -55 -126 -88 -48 -33 -86 -65 -84 -72 1 -7
67 -55 145 -108 l144 -95 79 0 c43 0 79 3 78 8 0 4 -54 49 -120 101 -65 52
-119 97 -119 101 0 4 28 29 63 56 34 27 68 55 76 62 8 7 24 20 37 29 40 26 28
33 -54 33 -70 0 -84 -3 -119 -27z"/>
<path d="M8859 749 c-46 -33 -105 -75 -131 -91 -27 -17 -48 -34 -48 -38 0 -4
12 -12 27 -19 15 -7 75 -44 133 -82 59 -38 110 -69 113 -69 4 0 7 28 7 62 0
54 -4 66 -27 91 l-28 29 28 22 c25 20 27 28 27 89 0 37 -4 67 -9 67 -5 0 -46
-27 -92 -61z"/>
<path d="M0 330 l0 -50 358 -5 c196 -3 2212 -7 4480 -10 l4122 -5 0 60 0 60
-4480 0 -4480 0 0 -50z"/>
</g>
</svg>
