<?xml version="1.0" standalone="no"?>
<!DOCTYPE svg PUBLIC "-//W3C//DTD SVG 20010904//EN"
 "http://www.w3.org/TR/2001/REC-SVG-20010904/DTD/svg10.dtd">
<svg version="1.0" xmlns="http://www.w3.org/2000/svg"
 width="452.000000pt" height="635.000000pt" viewBox="0 0 452.000000 635.000000"
 preserveAspectRatio="xMidYMid meet">

<g transform="translate(0.000000,635.000000) scale(0.100000,-0.100000)"
fill="#000000" stroke="none">
<path d="M3235 5893 c6 -6 42 -17 80 -26 94 -22 211 -83 248 -129 84 -105 17
-245 -193 -400 -171 -126 -447 -273 -980 -523 -945 -443 -1378 -700 -1750
-1038 -295 -268 -517 -590 -614 -891 l-26 -79 0 -420 0 -420 47 -140 c95 -287
273 -593 513 -880 l73 -87 68 0 c43 0 69 4 69 11 0 6 -31 45 -69 87 -326 364
-550 776 -631 1159 -27 127 -37 375 -21 498 80 603 503 1135 1286 1617 248
153 705 390 1140 592 229 106 521 252 625 311 157 89 334 212 397 274 71 71
123 165 123 223 0 21 5 38 10 38 6 0 10 -22 10 -48 0 -133 -154 -290 -468
-479 -106 -64 -254 -139 -813 -411 -840 -409 -1292 -695 -1624 -1027 -474
-475 -653 -988 -539 -1545 79 -384 346 -834 728 -1227 l60 -63 80 0 80 0 -145
148 c-559 568 -815 1155 -734 1690 53 355 233 683 549 998 363 362 698 572
1726 1082 234 116 481 243 550 282 291 167 484 319 545 431 33 61 37 136 12
186 -22 41 -89 98 -149 125 -31 14 -44 24 -36 29 8 5 3 9 -13 12 -67 14 -177
37 -199 43 -16 4 -22 3 -15 -3z"/>
<path d="M3650 5828 c14 -6 51 -22 83 -36 77 -33 143 -81 173 -126 124 -183
-121 -486 -705 -870 -829 -546 -949 -633 -1181 -866 -462 -461 -566 -925 -320
-1425 133 -271 357 -530 695 -799 311 -249 575 -418 1045 -669 321 -172 332
-176 448 -177 107 0 118 11 40 43 -97 39 -571 282 -743 382 -869 501 -1361
995 -1496 1502 -33 121 -37 320 -10 447 78 371 336 691 868 1079 72 53 279
194 460 313 391 258 561 383 700 517 122 118 185 198 225 286 37 83 46 73 13
-14 -36 -97 -100 -186 -212 -298 -150 -150 -313 -274 -740 -562 -438 -296
-695 -502 -881 -708 -364 -402 -435 -805 -217 -1242 272 -545 1013 -1098 2179
-1625 241 -109 251 -112 354 -118 88 -5 92 -4 92 16 0 13 -9 23 -22 28 -54 17
-458 193 -651 284 -870 410 -1488 862 -1788 1307 -66 97 -130 232 -165 348
-25 82 -28 104 -28 250 -1 187 14 254 93 420 69 143 156 260 311 416 191 192
325 297 775 609 451 313 523 368 688 529 185 181 256 296 265 427 3 42 -1 86
-8 108 -25 76 -147 169 -286 216 -61 21 -96 26 -54 8z"/>
<path d="M3660 5763 c1 -13 48 -44 54 -35 3 5 -8 16 -25 26 -16 9 -29 14 -29
9z"/>
<path d="M3784 5594 c3 -9 6 -20 6 -25 0 -5 5 -9 10 -9 6 0 10 11 10 25 0 16
-6 25 -16 25 -11 0 -14 -5 -10 -16z"/>
<path d="M3760 5485 c-7 -14 -10 -28 -6 -32 9 -9 36 25 36 44 0 21 -16 15 -30
-12z"/>
<path d="M3670 5355 c-18 -19 -30 -38 -26 -42 3 -4 26 12 49 35 26 26 36 42
26 42 -8 0 -30 -16 -49 -35z"/>
<path d="M3508 5213 c-47 -38 -58 -53 -37 -53 15 0 109 69 109 81 0 18 -26 8
-72 -28z"/>
<path d="M3277 5048 c-66 -42 -80 -58 -54 -58 16 0 131 73 141 89 14 23 -22
10 -87 -31z"/>
<path d="M2993 4880 c-71 -40 -90 -56 -79 -67 8 -8 123 51 161 82 49 40 2 31
-82 -15z"/>
<path d="M2689 4706 c-115 -64 -132 -77 -122 -87 5 -5 19 -6 30 -2 33 13 183
107 183 115 0 15 -36 5 -91 -26z"/>
<path d="M2305 4485 c-44 -25 -94 -57 -110 -70 l-30 -24 26 -1 c27 0 229 115
229 131 0 19 -38 7 -115 -36z"/>
<path d="M1894 4224 c-103 -74 -134 -100 -127 -108 18 -18 57 1 143 69 52 41
98 75 103 75 4 0 7 5 7 10 0 25 -55 5 -126 -46z"/>
<path d="M1480 3889 c-80 -71 -110 -105 -110 -123 0 -3 12 -6 28 -6 21 0 48
21 125 98 53 53 97 101 97 105 0 4 -11 7 -25 7 -17 0 -53 -25 -115 -81z"/>
<path d="M1152 3503 c-55 -86 -92 -156 -92 -173 0 -7 13 -10 32 -8 30 3 37 12
100 123 37 66 68 123 68 128 0 4 -13 7 -29 7 -25 0 -35 -10 -79 -77z"/>
<path d="M961 3058 c-14 -46 -31 -168 -31 -223 l0 -46 38 3 37 3 7 95 c4 52
11 116 16 142 11 54 9 58 -29 58 -22 0 -29 -6 -38 -32z"/>
<path d="M964 2525 c-13 -33 78 -300 108 -316 21 -11 68 -1 68 15 0 6 -24 79
-54 161 -53 147 -54 150 -85 153 -21 2 -33 -2 -37 -13z"/>
<path d="M1231 1951 c-8 -5 -12 -15 -9 -22 9 -23 166 -218 222 -275 47 -49 56
-54 94 -54 69 0 65 20 -25 113 -44 45 -108 119 -143 165 -55 72 -67 82 -94 82
-17 0 -37 -4 -45 -9z"/>
<path d="M1816 1347 l-28 -12 44 -41 c87 -80 444 -335 490 -350 28 -8 80 15
76 35 -2 9 -45 43 -96 77 -104 69 -198 138 -323 236 -89 70 -110 77 -163 55z"/>
</g>
</svg>
